# generated by mjlab asset_pipeline; 576 faces
mtllib puck_vis.mtl
v 0.000000 0.000000 -0.012700
v 0.000000 0.000000 -0.012700
v 0.000000 0.000000 -0.012700
v 0.000000 0.000000 -0.012700
v 0.000000 0.000000 -0.012700
v 0.000000 0.000000 -0.012700
v 0.000000 0.000000 -0.012700
v 0.000000 0.000000 -0.012700
v 0.000000 0.000000 -0.012700
v 0.000000 0.000000 -0.012700
v 0.000000 0.000000 -0.012700
v 0.000000 0.000000 -0.012700
v 0.000000 0.000000 -0.012700
v 0.000000 0.000000 -0.012700
v 0.000000 0.000000 -0.012700
v 0.000000 0.000000 -0.012700
v 0.000000 0.000000 -0.012700
v 0.000000 0.000000 -0.012700
v 0.000000 0.000000 -0.012700
v -0.000000 0.000000 -0.012700
v -0.000000 0.000000 -0.012700
v -0.000000 0.000000 -0.012700
v -0.000000 0.000000 -0.012700
v -0.000000 0.000000 -0.012700
v -0.000000 0.000000 -0.012700
v -0.000000 0.000000 -0.012700
v -0.000000 0.000000 -0.012700
v -0.000000 0.000000 -0.012700
v -0.000000 0.000000 -0.012700
v -0.000000 0.000000 -0.012700
v -0.000000 0.000000 -0.012700
v -0.000000 0.000000 -0.012700
v -0.000000 0.000000 -0.012700
v -0.000000 0.000000 -0.012700
v -0.000000 0.000000 -0.012700
v -0.000000 0.000000 -0.012700
v -0.000000 0.000000 -0.012700
v -0.000000 -0.000000 -0.012700
v -0.000000 -0.000000 -0.012700
v -0.000000 -0.000000 -0.012700
v -0.000000 -0.000000 -0.012700
v -0.000000 -0.000000 -0.012700
v -0.000000 -0.000000 -0.012700
v -0.000000 -0.000000 -0.012700
v -0.000000 -0.000000 -0.012700
v -0.000000 -0.000000 -0.012700
v -0.000000 -0.000000 -0.012700
v -0.000000 -0.000000 -0.012700
v -0.000000 -0.000000 -0.012700
v -0.000000 -0.000000 -0.012700
v -0.000000 -0.000000 -0.012700
v -0.000000 -0.000000 -0.012700
v -0.000000 -0.000000 -0.012700
v -0.000000 -0.000000 -0.012700
v -0.000000 -0.000000 -0.012700
v 0.000000 -0.000000 -0.012700
v 0.000000 -0.000000 -0.012700
v 0.000000 -0.000000 -0.012700
v 0.000000 -0.000000 -0.012700
v 0.000000 -0.000000 -0.012700
v 0.000000 -0.000000 -0.012700
v 0.000000 -0.000000 -0.012700
v 0.000000 -0.000000 -0.012700
v 0.000000 -0.000000 -0.012700
v 0.000000 -0.000000 -0.012700
v 0.000000 -0.000000 -0.012700
v 0.000000 -0.000000 -0.012700
v 0.000000 -0.000000 -0.012700
v 0.000000 -0.000000 -0.012700
v 0.000000 -0.000000 -0.012700
v 0.000000 -0.000000 -0.012700
v 0.000000 -0.000000 -0.012700
v 0.000000 -0.000000 -0.012700
v 0.035600 0.000000 -0.012700
v 0.035465 0.003103 -0.012700
v 0.035059 0.006182 -0.012700
v 0.034387 0.009214 -0.012700
v 0.033453 0.012176 -0.012700
v 0.032265 0.015045 -0.012700
v 0.030831 0.017800 -0.012700
v 0.029162 0.020419 -0.012700
v 0.027271 0.022883 -0.012700
v 0.025173 0.025173 -0.012700
v 0.022883 0.027271 -0.012700
v 0.020419 0.029162 -0.012700
v 0.017800 0.030831 -0.012700
v 0.015045 0.032265 -0.012700
v 0.012176 0.033453 -0.012700
v 0.009214 0.034387 -0.012700
v 0.006182 0.035059 -0.012700
v 0.003103 0.035465 -0.012700
v 0.000000 0.035600 -0.012700
v -0.003103 0.035465 -0.012700
v -0.006182 0.035059 -0.012700
v -0.009214 0.034387 -0.012700
v -0.012176 0.033453 -0.012700
v -0.015045 0.032265 -0.012700
v -0.017800 0.030831 -0.012700
v -0.020419 0.029162 -0.012700
v -0.022883 0.027271 -0.012700
v -0.025173 0.025173 -0.012700
v -0.027271 0.022883 -0.012700
v -0.029162 0.020419 -0.012700
v -0.030831 0.017800 -0.012700
v -0.032265 0.015045 -0.012700
v -0.033453 0.012176 -0.012700
v -0.034387 0.009214 -0.012700
v -0.035059 0.006182 -0.012700
v -0.035465 0.003103 -0.012700
v -0.035600 0.000000 -0.012700
v -0.035465 -0.003103 -0.012700
v -0.035059 -0.006182 -0.012700
v -0.034387 -0.009214 -0.012700
v -0.033453 -0.012176 -0.012700
v -0.032265 -0.015045 -0.012700
v -0.030831 -0.017800 -0.012700
v -0.029162 -0.020419 -0.012700
v -0.027271 -0.022883 -0.012700
v -0.025173 -0.025173 -0.012700
v -0.022883 -0.027271 -0.012700
v -0.020419 -0.029162 -0.012700
v -0.017800 -0.030831 -0.012700
v -0.015045 -0.032265 -0.012700
v -0.012176 -0.033453 -0.012700
v -0.009214 -0.034387 -0.012700
v -0.006182 -0.035059 -0.012700
v -0.003103 -0.035465 -0.012700
v -0.000000 -0.035600 -0.012700
v 0.003103 -0.035465 -0.012700
v 0.006182 -0.035059 -0.012700
v 0.009214 -0.034387 -0.012700
v 0.012176 -0.033453 -0.012700
v 0.015045 -0.032265 -0.012700
v 0.017800 -0.030831 -0.012700
v 0.020419 -0.029162 -0.012700
v 0.022883 -0.027271 -0.012700
v 0.025173 -0.025173 -0.012700
v 0.027271 -0.022883 -0.012700
v 0.029162 -0.020419 -0.012700
v 0.030831 -0.017800 -0.012700
v 0.032265 -0.015045 -0.012700
v 0.033453 -0.012176 -0.012700
v 0.034387 -0.009214 -0.012700
v 0.035059 -0.006182 -0.012700
v 0.035465 -0.003103 -0.012700
v 0.035600 -0.000000 -0.012700
v 0.035600 0.000000 -0.012700
v 0.035465 0.003103 -0.012700
v 0.035059 0.006182 -0.012700
v 0.034387 0.009214 -0.012700
v 0.033453 0.012176 -0.012700
v 0.032265 0.015045 -0.012700
v 0.030831 0.017800 -0.012700
v 0.029162 0.020419 -0.012700
v 0.027271 0.022883 -0.012700
v 0.025173 0.025173 -0.012700
v 0.022883 0.027271 -0.012700
v 0.020419 0.029162 -0.012700
v 0.017800 0.030831 -0.012700
v 0.015045 0.032265 -0.012700
v 0.012176 0.033453 -0.012700
v 0.009214 0.034387 -0.012700
v 0.006182 0.035059 -0.012700
v 0.003103 0.035465 -0.012700
v 0.000000 0.035600 -0.012700
v -0.003103 0.035465 -0.012700
v -0.006182 0.035059 -0.012700
v -0.009214 0.034387 -0.012700
v -0.012176 0.033453 -0.012700
v -0.015045 0.032265 -0.012700
v -0.017800 0.030831 -0.012700
v -0.020419 0.029162 -0.012700
v -0.022883 0.027271 -0.012700
v -0.025173 0.025173 -0.012700
v -0.027271 0.022883 -0.012700
v -0.029162 0.020419 -0.012700
v -0.030831 0.017800 -0.012700
v -0.032265 0.015045 -0.012700
v -0.033453 0.012176 -0.012700
v -0.034387 0.009214 -0.012700
v -0.035059 0.006182 -0.012700
v -0.035465 0.003103 -0.012700
v -0.035600 0.000000 -0.012700
v -0.035465 -0.003103 -0.012700
v -0.035059 -0.006182 -0.012700
v -0.034387 -0.009214 -0.012700
v -0.033453 -0.012176 -0.012700
v -0.032265 -0.015045 -0.012700
v -0.030831 -0.017800 -0.012700
v -0.029162 -0.020419 -0.012700
v -0.027271 -0.022883 -0.012700
v -0.025173 -0.025173 -0.012700
v -0.022883 -0.027271 -0.012700
v -0.020419 -0.029162 -0.012700
v -0.017800 -0.030831 -0.012700
v -0.015045 -0.032265 -0.012700
v -0.012176 -0.033453 -0.012700
v -0.009214 -0.034387 -0.012700
v -0.006182 -0.035059 -0.012700
v -0.003103 -0.035465 -0.012700
v -0.000000 -0.035600 -0.012700
v 0.003103 -0.035465 -0.012700
v 0.006182 -0.035059 -0.012700
v 0.009214 -0.034387 -0.012700
v 0.012176 -0.033453 -0.012700
v 0.015045 -0.032265 -0.012700
v 0.017800 -0.030831 -0.012700
v 0.020419 -0.029162 -0.012700
v 0.022883 -0.027271 -0.012700
v 0.025173 -0.025173 -0.012700
v 0.027271 -0.022883 -0.012700
v 0.029162 -0.020419 -0.012700
v 0.030831 -0.017800 -0.012700
v 0.032265 -0.015045 -0.012700
v 0.033453 -0.012176 -0.012700
v 0.034387 -0.009214 -0.012700
v 0.035059 -0.006182 -0.012700
v 0.035465 -0.003103 -0.012700
v 0.035600 -0.000000 -0.012700
v 0.038100 0.000000 -0.010200
v 0.037955 0.003321 -0.010200
v 0.037521 0.006616 -0.010200
v 0.036802 0.009861 -0.010200
v 0.035802 0.013031 -0.010200
v 0.034530 0.016102 -0.010200
v 0.032996 0.019050 -0.010200
v 0.031210 0.021853 -0.010200
v 0.029186 0.024490 -0.010200
v 0.026941 0.026941 -0.010200
v 0.024490 0.029186 -0.010200
v 0.021853 0.031210 -0.010200
v 0.019050 0.032996 -0.010200
v 0.016102 0.034530 -0.010200
v 0.013031 0.035802 -0.010200
v 0.009861 0.036802 -0.010200
v 0.006616 0.037521 -0.010200
v 0.003321 0.037955 -0.010200
v 0.000000 0.038100 -0.010200
v -0.003321 0.037955 -0.010200
v -0.006616 0.037521 -0.010200
v -0.009861 0.036802 -0.010200
v -0.013031 0.035802 -0.010200
v -0.016102 0.034530 -0.010200
v -0.019050 0.032996 -0.010200
v -0.021853 0.031210 -0.010200
v -0.024490 0.029186 -0.010200
v -0.026941 0.026941 -0.010200
v -0.029186 0.024490 -0.010200
v -0.031210 0.021853 -0.010200
v -0.032996 0.019050 -0.010200
v -0.034530 0.016102 -0.010200
v -0.035802 0.013031 -0.010200
v -0.036802 0.009861 -0.010200
v -0.037521 0.006616 -0.010200
v -0.037955 0.003321 -0.010200
v -0.038100 0.000000 -0.010200
v -0.037955 -0.003321 -0.010200
v -0.037521 -0.006616 -0.010200
v -0.036802 -0.009861 -0.010200
v -0.035802 -0.013031 -0.010200
v -0.034530 -0.016102 -0.010200
v -0.032996 -0.019050 -0.010200
v -0.031210 -0.021853 -0.010200
v -0.029186 -0.024490 -0.010200
v -0.026941 -0.026941 -0.010200
v -0.024490 -0.029186 -0.010200
v -0.021853 -0.031210 -0.010200
v -0.019050 -0.032996 -0.010200
v -0.016102 -0.034530 -0.010200
v -0.013031 -0.035802 -0.010200
v -0.009861 -0.036802 -0.010200
v -0.006616 -0.037521 -0.010200
v -0.003321 -0.037955 -0.010200
v -0.000000 -0.038100 -0.010200
v 0.003321 -0.037955 -0.010200
v 0.006616 -0.037521 -0.010200
v 0.009861 -0.036802 -0.010200
v 0.013031 -0.035802 -0.010200
v 0.016102 -0.034530 -0.010200
v 0.019050 -0.032996 -0.010200
v 0.021853 -0.031210 -0.010200
v 0.024490 -0.029186 -0.010200
v 0.026941 -0.026941 -0.010200
v 0.029186 -0.024490 -0.010200
v 0.031210 -0.021853 -0.010200
v 0.032996 -0.019050 -0.010200
v 0.034530 -0.016102 -0.010200
v 0.035802 -0.013031 -0.010200
v 0.036802 -0.009861 -0.010200
v 0.037521 -0.006616 -0.010200
v 0.037955 -0.003321 -0.010200
v 0.038100 -0.000000 -0.010200
v 0.038100 0.000000 -0.010200
v 0.037955 0.003321 -0.010200
v 0.037521 0.006616 -0.010200
v 0.036802 0.009861 -0.010200
v 0.035802 0.013031 -0.010200
v 0.034530 0.016102 -0.010200
v 0.032996 0.019050 -0.010200
v 0.031210 0.021853 -0.010200
v 0.029186 0.024490 -0.010200
v 0.026941 0.026941 -0.010200
v 0.024490 0.029186 -0.010200
v 0.021853 0.031210 -0.010200
v 0.019050 0.032996 -0.010200
v 0.016102 0.034530 -0.010200
v 0.013031 0.035802 -0.010200
v 0.009861 0.036802 -0.010200
v 0.006616 0.037521 -0.010200
v 0.003321 0.037955 -0.010200
v 0.000000 0.038100 -0.010200
v -0.003321 0.037955 -0.010200
v -0.006616 0.037521 -0.010200
v -0.009861 0.036802 -0.010200
v -0.013031 0.035802 -0.010200
v -0.016102 0.034530 -0.010200
v -0.019050 0.032996 -0.010200
v -0.021853 0.031210 -0.010200
v -0.024490 0.029186 -0.010200
v -0.026941 0.026941 -0.010200
v -0.029186 0.024490 -0.010200
v -0.031210 0.021853 -0.010200
v -0.032996 0.019050 -0.010200
v -0.034530 0.016102 -0.010200
v -0.035802 0.013031 -0.010200
v -0.036802 0.009861 -0.010200
v -0.037521 0.006616 -0.010200
v -0.037955 0.003321 -0.010200
v -0.038100 0.000000 -0.010200
v -0.037955 -0.003321 -0.010200
v -0.037521 -0.006616 -0.010200
v -0.036802 -0.009861 -0.010200
v -0.035802 -0.013031 -0.010200
v -0.034530 -0.016102 -0.010200
v -0.032996 -0.019050 -0.010200
v -0.031210 -0.021853 -0.010200
v -0.029186 -0.024490 -0.010200
v -0.026941 -0.026941 -0.010200
v -0.024490 -0.029186 -0.010200
v -0.021853 -0.031210 -0.010200
v -0.019050 -0.032996 -0.010200
v -0.016102 -0.034530 -0.010200
v -0.013031 -0.035802 -0.010200
v -0.009861 -0.036802 -0.010200
v -0.006616 -0.037521 -0.010200
v -0.003321 -0.037955 -0.010200
v -0.000000 -0.038100 -0.010200
v 0.003321 -0.037955 -0.010200
v 0.006616 -0.037521 -0.010200
v 0.009861 -0.036802 -0.010200
v 0.013031 -0.035802 -0.010200
v 0.016102 -0.034530 -0.010200
v 0.019050 -0.032996 -0.010200
v 0.021853 -0.031210 -0.010200
v 0.024490 -0.029186 -0.010200
v 0.026941 -0.026941 -0.010200
v 0.029186 -0.024490 -0.010200
v 0.031210 -0.021853 -0.010200
v 0.032996 -0.019050 -0.010200
v 0.034530 -0.016102 -0.010200
v 0.035802 -0.013031 -0.010200
v 0.036802 -0.009861 -0.010200
v 0.037521 -0.006616 -0.010200
v 0.037955 -0.003321 -0.010200
v 0.038100 -0.000000 -0.010200
v 0.038100 0.000000 0.010200
v 0.037955 0.003321 0.010200
v 0.037521 0.006616 0.010200
v 0.036802 0.009861 0.010200
v 0.035802 0.013031 0.010200
v 0.034530 0.016102 0.010200
v 0.032996 0.019050 0.010200
v 0.031210 0.021853 0.010200
v 0.029186 0.024490 0.010200
v 0.026941 0.026941 0.010200
v 0.024490 0.029186 0.010200
v 0.021853 0.031210 0.010200
v 0.019050 0.032996 0.010200
v 0.016102 0.034530 0.010200
v 0.013031 0.035802 0.010200
v 0.009861 0.036802 0.010200
v 0.006616 0.037521 0.010200
v 0.003321 0.037955 0.010200
v 0.000000 0.038100 0.010200
v -0.003321 0.037955 0.010200
v -0.006616 0.037521 0.010200
v -0.009861 0.036802 0.010200
v -0.013031 0.035802 0.010200
v -0.016102 0.034530 0.010200
v -0.019050 0.032996 0.010200
v -0.021853 0.031210 0.010200
v -0.024490 0.029186 0.010200
v -0.026941 0.026941 0.010200
v -0.029186 0.024490 0.010200
v -0.031210 0.021853 0.010200
v -0.032996 0.019050 0.010200
v -0.034530 0.016102 0.010200
v -0.035802 0.013031 0.010200
v -0.036802 0.009861 0.010200
v -0.037521 0.006616 0.010200
v -0.037955 0.003321 0.010200
v -0.038100 0.000000 0.010200
v -0.037955 -0.003321 0.010200
v -0.037521 -0.006616 0.010200
v -0.036802 -0.009861 0.010200
v -0.035802 -0.013031 0.010200
v -0.034530 -0.016102 0.010200
v -0.032996 -0.019050 0.010200
v -0.031210 -0.021853 0.010200
v -0.029186 -0.024490 0.010200
v -0.026941 -0.026941 0.010200
v -0.024490 -0.029186 0.010200
v -0.021853 -0.031210 0.010200
v -0.019050 -0.032996 0.010200
v -0.016102 -0.034530 0.010200
v -0.013031 -0.035802 0.010200
v -0.009861 -0.036802 0.010200
v -0.006616 -0.037521 0.010200
v -0.003321 -0.037955 0.010200
v -0.000000 -0.038100 0.010200
v 0.003321 -0.037955 0.010200
v 0.006616 -0.037521 0.010200
v 0.009861 -0.036802 0.010200
v 0.013031 -0.035802 0.010200
v 0.016102 -0.034530 0.010200
v 0.019050 -0.032996 0.010200
v 0.021853 -0.031210 0.010200
v 0.024490 -0.029186 0.010200
v 0.026941 -0.026941 0.010200
v 0.029186 -0.024490 0.010200
v 0.031210 -0.021853 0.010200
v 0.032996 -0.019050 0.010200
v 0.034530 -0.016102 0.010200
v 0.035802 -0.013031 0.010200
v 0.036802 -0.009861 0.010200
v 0.037521 -0.006616 0.010200
v 0.037955 -0.003321 0.010200
v 0.038100 -0.000000 0.010200
v 0.038100 0.000000 0.010200
v 0.037955 0.003321 0.010200
v 0.037521 0.006616 0.010200
v 0.036802 0.009861 0.010200
v 0.035802 0.013031 0.010200
v 0.034530 0.016102 0.010200
v 0.032996 0.019050 0.010200
v 0.031210 0.021853 0.010200
v 0.029186 0.024490 0.010200
v 0.026941 0.026941 0.010200
v 0.024490 0.029186 0.010200
v 0.021853 0.031210 0.010200
v 0.019050 0.032996 0.010200
v 0.016102 0.034530 0.010200
v 0.013031 0.035802 0.010200
v 0.009861 0.036802 0.010200
v 0.006616 0.037521 0.010200
v 0.003321 0.037955 0.010200
v 0.000000 0.038100 0.010200
v -0.003321 0.037955 0.010200
v -0.006616 0.037521 0.010200
v -0.009861 0.036802 0.010200
v -0.013031 0.035802 0.010200
v -0.016102 0.034530 0.010200
v -0.019050 0.032996 0.010200
v -0.021853 0.031210 0.010200
v -0.024490 0.029186 0.010200
v -0.026941 0.026941 0.010200
v -0.029186 0.024490 0.010200
v -0.031210 0.021853 0.010200
v -0.032996 0.019050 0.010200
v -0.034530 0.016102 0.010200
v -0.035802 0.013031 0.010200
v -0.036802 0.009861 0.010200
v -0.037521 0.006616 0.010200
v -0.037955 0.003321 0.010200
v -0.038100 0.000000 0.010200
v -0.037955 -0.003321 0.010200
v -0.037521 -0.006616 0.010200
v -0.036802 -0.009861 0.010200
v -0.035802 -0.013031 0.010200
v -0.034530 -0.016102 0.010200
v -0.032996 -0.019050 0.010200
v -0.031210 -0.021853 0.010200
v -0.029186 -0.024490 0.010200
v -0.026941 -0.026941 0.010200
v -0.024490 -0.029186 0.010200
v -0.021853 -0.031210 0.010200
v -0.019050 -0.032996 0.010200
v -0.016102 -0.034530 0.010200
v -0.013031 -0.035802 0.010200
v -0.009861 -0.036802 0.010200
v -0.006616 -0.037521 0.010200
v -0.003321 -0.037955 0.010200
v -0.000000 -0.038100 0.010200
v 0.003321 -0.037955 0.010200
v 0.006616 -0.037521 0.010200
v 0.009861 -0.036802 0.010200
v 0.013031 -0.035802 0.010200
v 0.016102 -0.034530 0.010200
v 0.019050 -0.032996 0.010200
v 0.021853 -0.031210 0.010200
v 0.024490 -0.029186 0.010200
v 0.026941 -0.026941 0.010200
v 0.029186 -0.024490 0.010200
v 0.031210 -0.021853 0.010200
v 0.032996 -0.019050 0.010200
v 0.034530 -0.016102 0.010200
v 0.035802 -0.013031 0.010200
v 0.036802 -0.009861 0.010200
v 0.037521 -0.006616 0.010200
v 0.037955 -0.003321 0.010200
v 0.038100 -0.000000 0.010200
v 0.035600 0.000000 0.012700
v 0.035465 0.003103 0.012700
v 0.035059 0.006182 0.012700
v 0.034387 0.009214 0.012700
v 0.033453 0.012176 0.012700
v 0.032265 0.015045 0.012700
v 0.030831 0.017800 0.012700
v 0.029162 0.020419 0.012700
v 0.027271 0.022883 0.012700
v 0.025173 0.025173 0.012700
v 0.022883 0.027271 0.012700
v 0.020419 0.029162 0.012700
v 0.017800 0.030831 0.012700
v 0.015045 0.032265 0.012700
v 0.012176 0.033453 0.012700
v 0.009214 0.034387 0.012700
v 0.006182 0.035059 0.012700
v 0.003103 0.035465 0.012700
v 0.000000 0.035600 0.012700
v -0.003103 0.035465 0.012700
v -0.006182 0.035059 0.012700
v -0.009214 0.034387 0.012700
v -0.012176 0.033453 0.012700
v -0.015045 0.032265 0.012700
v -0.017800 0.030831 0.012700
v -0.020419 0.029162 0.012700
v -0.022883 0.027271 0.012700
v -0.025173 0.025173 0.012700
v -0.027271 0.022883 0.012700
v -0.029162 0.020419 0.012700
v -0.030831 0.017800 0.012700
v -0.032265 0.015045 0.012700
v -0.033453 0.012176 0.012700
v -0.034387 0.009214 0.012700
v -0.035059 0.006182 0.012700
v -0.035465 0.003103 0.012700
v -0.035600 0.000000 0.012700
v -0.035465 -0.003103 0.012700
v -0.035059 -0.006182 0.012700
v -0.034387 -0.009214 0.012700
v -0.033453 -0.012176 0.012700
v -0.032265 -0.015045 0.012700
v -0.030831 -0.017800 0.012700
v -0.029162 -0.020419 0.012700
v -0.027271 -0.022883 0.012700
v -0.025173 -0.025173 0.012700
v -0.022883 -0.027271 0.012700
v -0.020419 -0.029162 0.012700
v -0.017800 -0.030831 0.012700
v -0.015045 -0.032265 0.012700
v -0.012176 -0.033453 0.012700
v -0.009214 -0.034387 0.012700
v -0.006182 -0.035059 0.012700
v -0.003103 -0.035465 0.012700
v -0.000000 -0.035600 0.012700
v 0.003103 -0.035465 0.012700
v 0.006182 -0.035059 0.012700
v 0.009214 -0.034387 0.012700
v 0.012176 -0.033453 0.012700
v 0.015045 -0.032265 0.012700
v 0.017800 -0.030831 0.012700
v 0.020419 -0.029162 0.012700
v 0.022883 -0.027271 0.012700
v 0.025173 -0.025173 0.012700
v 0.027271 -0.022883 0.012700
v 0.029162 -0.020419 0.012700
v 0.030831 -0.017800 0.012700
v 0.032265 -0.015045 0.012700
v 0.033453 -0.012176 0.012700
v 0.034387 -0.009214 0.012700
v 0.035059 -0.006182 0.012700
v 0.035465 -0.003103 0.012700
v 0.035600 -0.000000 0.012700
v 0.035600 0.000000 0.012700
v 0.035465 0.003103 0.012700
v 0.035059 0.006182 0.012700
v 0.034387 0.009214 0.012700
v 0.033453 0.012176 0.012700
v 0.032265 0.015045 0.012700
v 0.030831 0.017800 0.012700
v 0.029162 0.020419 0.012700
v 0.027271 0.022883 0.012700
v 0.025173 0.025173 0.012700
v 0.022883 0.027271 0.012700
v 0.020419 0.029162 0.012700
v 0.017800 0.030831 0.012700
v 0.015045 0.032265 0.012700
v 0.012176 0.033453 0.012700
v 0.009214 0.034387 0.012700
v 0.006182 0.035059 0.012700
v 0.003103 0.035465 0.012700
v 0.000000 0.035600 0.012700
v -0.003103 0.035465 0.012700
v -0.006182 0.035059 0.012700
v -0.009214 0.034387 0.012700
v -0.012176 0.033453 0.012700
v -0.015045 0.032265 0.012700
v -0.017800 0.030831 0.012700
v -0.020419 0.029162 0.012700
v -0.022883 0.027271 0.012700
v -0.025173 0.025173 0.012700
v -0.027271 0.022883 0.012700
v -0.029162 0.020419 0.012700
v -0.030831 0.017800 0.012700
v -0.032265 0.015045 0.012700
v -0.033453 0.012176 0.012700
v -0.034387 0.009214 0.012700
v -0.035059 0.006182 0.012700
v -0.035465 0.003103 0.012700
v -0.035600 0.000000 0.012700
v -0.035465 -0.003103 0.012700
v -0.035059 -0.006182 0.012700
v -0.034387 -0.009214 0.012700
v -0.033453 -0.012176 0.012700
v -0.032265 -0.015045 0.012700
v -0.030831 -0.017800 0.012700
v -0.029162 -0.020419 0.012700
v -0.027271 -0.022883 0.012700
v -0.025173 -0.025173 0.012700
v -0.022883 -0.027271 0.012700
v -0.020419 -0.029162 0.012700
v -0.017800 -0.030831 0.012700
v -0.015045 -0.032265 0.012700
v -0.012176 -0.033453 0.012700
v -0.009214 -0.034387 0.012700
v -0.006182 -0.035059 0.012700
v -0.003103 -0.035465 0.012700
v -0.000000 -0.035600 0.012700
v 0.003103 -0.035465 0.012700
v 0.006182 -0.035059 0.012700
v 0.009214 -0.034387 0.012700
v 0.012176 -0.033453 0.012700
v 0.015045 -0.032265 0.012700
v 0.017800 -0.030831 0.012700
v 0.020419 -0.029162 0.012700
v 0.022883 -0.027271 0.012700
v 0.025173 -0.025173 0.012700
v 0.027271 -0.022883 0.012700
v 0.029162 -0.020419 0.012700
v 0.030831 -0.017800 0.012700
v 0.032265 -0.015045 0.012700
v 0.033453 -0.012176 0.012700
v 0.034387 -0.009214 0.012700
v 0.035059 -0.006182 0.012700
v 0.035465 -0.003103 0.012700
v 0.035600 -0.000000 0.012700
v 0.000000 0.000000 0.012700
v 0.000000 0.000000 0.012700
v 0.000000 0.000000 0.012700
v 0.000000 0.000000 0.012700
v 0.000000 0.000000 0.012700
v 0.000000 0.000000 0.012700
v 0.000000 0.000000 0.012700
v 0.000000 0.000000 0.012700
v 0.000000 0.000000 0.012700
v 0.000000 0.000000 0.012700
v 0.000000 0.000000 0.012700
v 0.000000 0.000000 0.012700
v 0.000000 0.000000 0.012700
v 0.000000 0.000000 0.012700
v 0.000000 0.000000 0.012700
v 0.000000 0.000000 0.012700
v 0.000000 0.000000 0.012700
v 0.000000 0.000000 0.012700
v 0.000000 0.000000 0.012700
v -0.000000 0.000000 0.012700
v -0.000000 0.000000 0.012700
v -0.000000 0.000000 0.012700
v -0.000000 0.000000 0.012700
v -0.000000 0.000000 0.012700
v -0.000000 0.000000 0.012700
v -0.000000 0.000000 0.012700
v -0.000000 0.000000 0.012700
v -0.000000 0.000000 0.012700
v -0.000000 0.000000 0.012700
v -0.000000 0.000000 0.012700
v -0.000000 0.000000 0.012700
v -0.000000 0.000000 0.012700
v -0.000000 0.000000 0.012700
v -0.000000 0.000000 0.012700
v -0.000000 0.000000 0.012700
v -0.000000 0.000000 0.012700
v -0.000000 0.000000 0.012700
v -0.000000 -0.000000 0.012700
v -0.000000 -0.000000 0.012700
v -0.000000 -0.000000 0.012700
v -0.000000 -0.000000 0.012700
v -0.000000 -0.000000 0.012700
v -0.000000 -0.000000 0.012700
v -0.000000 -0.000000 0.012700
v -0.000000 -0.000000 0.012700
v -0.000000 -0.000000 0.012700
v -0.000000 -0.000000 0.012700
v -0.000000 -0.000000 0.012700
v -0.000000 -0.000000 0.012700
v -0.000000 -0.000000 0.012700
v -0.000000 -0.000000 0.012700
v -0.000000 -0.000000 0.012700
v -0.000000 -0.000000 0.012700
v -0.000000 -0.000000 0.012700
v -0.000000 -0.000000 0.012700
v 0.000000 -0.000000 0.012700
v 0.000000 -0.000000 0.012700
v 0.000000 -0.000000 0.012700
v 0.000000 -0.000000 0.012700
v 0.000000 -0.000000 0.012700
v 0.000000 -0.000000 0.012700
v 0.000000 -0.000000 0.012700
v 0.000000 -0.000000 0.012700
v 0.000000 -0.000000 0.012700
v 0.000000 -0.000000 0.012700
v 0.000000 -0.000000 0.012700
v 0.000000 -0.000000 0.012700
v 0.000000 -0.000000 0.012700
v 0.000000 -0.000000 0.012700
v 0.000000 -0.000000 0.012700
v 0.000000 -0.000000 0.012700
v 0.000000 -0.000000 0.012700
v 0.000000 -0.000000 0.012700
vt 0.500000 0.500000
vt 0.500000 0.500000
vt 0.500000 0.500000
vt 0.500000 0.500000
vt 0.500000 0.500000
vt 0.500000 0.500000
vt 0.500000 0.500000
vt 0.500000 0.500000
vt 0.500000 0.500000
vt 0.500000 0.500000
vt 0.500000 0.500000
vt 0.500000 0.500000
vt 0.500000 0.500000
vt 0.500000 0.500000
vt 0.500000 0.500000
vt 0.500000 0.500000
vt 0.500000 0.500000
vt 0.500000 0.500000
vt 0.500000 0.500000
vt 0.500000 0.500000
vt 0.500000 0.500000
vt 0.500000 0.500000
vt 0.500000 0.500000
vt 0.500000 0.500000
vt 0.500000 0.500000
vt 0.500000 0.500000
vt 0.500000 0.500000
vt 0.500000 0.500000
vt 0.500000 0.500000
vt 0.500000 0.500000
vt 0.500000 0.500000
vt 0.500000 0.500000
vt 0.500000 0.500000
vt 0.500000 0.500000
vt 0.500000 0.500000
vt 0.500000 0.500000
vt 0.500000 0.500000
vt 0.500000 0.500000
vt 0.500000 0.500000
vt 0.500000 0.500000
vt 0.500000 0.500000
vt 0.500000 0.500000
vt 0.500000 0.500000
vt 0.500000 0.500000
vt 0.500000 0.500000
vt 0.500000 0.500000
vt 0.500000 0.500000
vt 0.500000 0.500000
vt 0.500000 0.500000
vt 0.500000 0.500000
vt 0.500000 0.500000
vt 0.500000 0.500000
vt 0.500000 0.500000
vt 0.500000 0.500000
vt 0.500000 0.500000
vt 0.500000 0.500000
vt 0.500000 0.500000
vt 0.500000 0.500000
vt 0.500000 0.500000
vt 0.500000 0.500000
vt 0.500000 0.500000
vt 0.500000 0.500000
vt 0.500000 0.500000
vt 0.500000 0.500000
vt 0.500000 0.500000
vt 0.500000 0.500000
vt 0.500000 0.500000
vt 0.500000 0.500000
vt 0.500000 0.500000
vt 0.500000 0.500000
vt 0.500000 0.500000
vt 0.500000 0.500000
vt 0.500000 0.500000
vt 0.944944 0.500000
vt 0.943251 0.538779
vt 0.938185 0.577264
vt 0.929783 0.615160
vt 0.918111 0.652180
vt 0.903257 0.688042
vt 0.885333 0.722472
vt 0.864477 0.755210
vt 0.840847 0.786005
vt 0.814623 0.814623
vt 0.786005 0.840847
vt 0.755210 0.864477
vt 0.722472 0.885333
vt 0.688042 0.903257
vt 0.652180 0.918111
vt 0.615160 0.929783
vt 0.577264 0.938185
vt 0.538779 0.943251
vt 0.500000 0.944944
vt 0.461221 0.943251
vt 0.422736 0.938185
vt 0.384840 0.929783
vt 0.347820 0.918111
vt 0.311958 0.903257
vt 0.277528 0.885333
vt 0.244790 0.864477
vt 0.213995 0.840847
vt 0.185377 0.814623
vt 0.159153 0.786005
vt 0.135523 0.755210
vt 0.114667 0.722472
vt 0.096743 0.688042
vt 0.081889 0.652180
vt 0.070217 0.615160
vt 0.061815 0.577264
vt 0.056749 0.538779
vt 0.055056 0.500000
vt 0.056749 0.461221
vt 0.061815 0.422736
vt 0.070217 0.384840
vt 0.081889 0.347820
vt 0.096743 0.311958
vt 0.114667 0.277528
vt 0.135523 0.244790
vt 0.159153 0.213995
vt 0.185377 0.185377
vt 0.213995 0.159153
vt 0.244790 0.135523
vt 0.277528 0.114667
vt 0.311958 0.096743
vt 0.347820 0.081889
vt 0.384840 0.070217
vt 0.422736 0.061815
vt 0.461221 0.056749
vt 0.500000 0.055056
vt 0.538779 0.056749
vt 0.577264 0.061815
vt 0.615160 0.070217
vt 0.652180 0.081889
vt 0.688042 0.096743
vt 0.722472 0.114667
vt 0.755210 0.135523
vt 0.786005 0.159153
vt 0.814623 0.185377
vt 0.840847 0.213995
vt 0.864477 0.244790
vt 0.885333 0.277528
vt 0.903257 0.311958
vt 0.918111 0.347820
vt 0.929783 0.384840
vt 0.938185 0.422736
vt 0.943251 0.461221
vt 0.944944 0.500000
vt 0.000000 0.360795
vt 0.083333 0.360795
vt 0.166667 0.360795
vt 0.250000 0.360795
vt 0.333333 0.360795
vt 0.416667 0.360795
vt 0.500000 0.360795
vt 0.583333 0.360795
vt 0.666667 0.360795
vt 0.750000 0.360795
vt 0.833333 0.360795
vt 0.916667 0.360795
vt 1.000000 0.360795
vt 1.083333 0.360795
vt 1.166667 0.360795
vt 1.250000 0.360795
vt 1.333333 0.360795
vt 1.416667 0.360795
vt 1.500000 0.360795
vt 1.583333 0.360795
vt 1.666667 0.360795
vt 1.750000 0.360795
vt 1.833333 0.360795
vt 1.916667 0.360795
vt 2.000000 0.360795
vt 2.083333 0.360795
vt 2.166667 0.360795
vt 2.250000 0.360795
vt 2.333333 0.360795
vt 2.416667 0.360795
vt 2.500000 0.360795
vt 2.583333 0.360795
vt 2.666667 0.360795
vt 2.750000 0.360795
vt 2.833333 0.360795
vt 2.916667 0.360795
vt 3.000000 0.360795
vt 3.083333 0.360795
vt 3.166667 0.360795
vt 3.250000 0.360795
vt 3.333333 0.360795
vt 3.416667 0.360795
vt 3.500000 0.360795
vt 3.583333 0.360795
vt 3.666667 0.360795
vt 3.750000 0.360795
vt 3.833333 0.360795
vt 3.916667 0.360795
vt 4.000000 0.360795
vt 4.083333 0.360795
vt 4.166667 0.360795
vt 4.250000 0.360795
vt 4.333333 0.360795
vt 4.416667 0.360795
vt 4.500000 0.360795
vt 4.583333 0.360795
vt 4.666667 0.360795
vt 4.750000 0.360795
vt 4.833333 0.360795
vt 4.916667 0.360795
vt 5.000000 0.360795
vt 5.083333 0.360795
vt 5.166667 0.360795
vt 5.250000 0.360795
vt 5.333333 0.360795
vt 5.416667 0.360795
vt 5.500000 0.360795
vt 5.583333 0.360795
vt 5.666667 0.360795
vt 5.750000 0.360795
vt 5.833333 0.360795
vt 5.916667 0.360795
vt 6.000000 0.360795
vt 0.000000 0.396626
vt 0.083333 0.396626
vt 0.166667 0.396626
vt 0.250000 0.396626
vt 0.333333 0.396626
vt 0.416667 0.396626
vt 0.500000 0.396626
vt 0.583333 0.396626
vt 0.666667 0.396626
vt 0.750000 0.396626
vt 0.833333 0.396626
vt 0.916667 0.396626
vt 1.000000 0.396626
vt 1.083333 0.396626
vt 1.166667 0.396626
vt 1.250000 0.396626
vt 1.333333 0.396626
vt 1.416667 0.396626
vt 1.500000 0.396626
vt 1.583333 0.396626
vt 1.666667 0.396626
vt 1.750000 0.396626
vt 1.833333 0.396626
vt 1.916667 0.396626
vt 2.000000 0.396626
vt 2.083333 0.396626
vt 2.166667 0.396626
vt 2.250000 0.396626
vt 2.333333 0.396626
vt 2.416667 0.396626
vt 2.500000 0.396626
vt 2.583333 0.396626
vt 2.666667 0.396626
vt 2.750000 0.396626
vt 2.833333 0.396626
vt 2.916667 0.396626
vt 3.000000 0.396626
vt 3.083333 0.396626
vt 3.166667 0.396626
vt 3.250000 0.396626
vt 3.333333 0.396626
vt 3.416667 0.396626
vt 3.500000 0.396626
vt 3.583333 0.396626
vt 3.666667 0.396626
vt 3.750000 0.396626
vt 3.833333 0.396626
vt 3.916667 0.396626
vt 4.000000 0.396626
vt 4.083333 0.396626
vt 4.166667 0.396626
vt 4.250000 0.396626
vt 4.333333 0.396626
vt 4.416667 0.396626
vt 4.500000 0.396626
vt 4.583333 0.396626
vt 4.666667 0.396626
vt 4.750000 0.396626
vt 4.833333 0.396626
vt 4.916667 0.396626
vt 5.000000 0.396626
vt 5.083333 0.396626
vt 5.166667 0.396626
vt 5.250000 0.396626
vt 5.333333 0.396626
vt 5.416667 0.396626
vt 5.500000 0.396626
vt 5.583333 0.396626
vt 5.666667 0.396626
vt 5.750000 0.396626
vt 5.833333 0.396626
vt 5.916667 0.396626
vt 6.000000 0.396626
vt 0.000000 0.396626
vt 0.083333 0.396626
vt 0.166667 0.396626
vt 0.250000 0.396626
vt 0.333333 0.396626
vt 0.416667 0.396626
vt 0.500000 0.396626
vt 0.583333 0.396626
vt 0.666667 0.396626
vt 0.750000 0.396626
vt 0.833333 0.396626
vt 0.916667 0.396626
vt 1.000000 0.396626
vt 1.083333 0.396626
vt 1.166667 0.396626
vt 1.250000 0.396626
vt 1.333333 0.396626
vt 1.416667 0.396626
vt 1.500000 0.396626
vt 1.583333 0.396626
vt 1.666667 0.396626
vt 1.750000 0.396626
vt 1.833333 0.396626
vt 1.916667 0.396626
vt 2.000000 0.396626
vt 2.083333 0.396626
vt 2.166667 0.396626
vt 2.250000 0.396626
vt 2.333333 0.396626
vt 2.416667 0.396626
vt 2.500000 0.396626
vt 2.583333 0.396626
vt 2.666667 0.396626
vt 2.750000 0.396626
vt 2.833333 0.396626
vt 2.916667 0.396626
vt 3.000000 0.396626
vt 3.083333 0.396626
vt 3.166667 0.396626
vt 3.250000 0.396626
vt 3.333333 0.396626
vt 3.416667 0.396626
vt 3.500000 0.396626
vt 3.583333 0.396626
vt 3.666667 0.396626
vt 3.750000 0.396626
vt 3.833333 0.396626
vt 3.916667 0.396626
vt 4.000000 0.396626
vt 4.083333 0.396626
vt 4.166667 0.396626
vt 4.250000 0.396626
vt 4.333333 0.396626
vt 4.416667 0.396626
vt 4.500000 0.396626
vt 4.583333 0.396626
vt 4.666667 0.396626
vt 4.750000 0.396626
vt 4.833333 0.396626
vt 4.916667 0.396626
vt 5.000000 0.396626
vt 5.083333 0.396626
vt 5.166667 0.396626
vt 5.250000 0.396626
vt 5.333333 0.396626
vt 5.416667 0.396626
vt 5.500000 0.396626
vt 5.583333 0.396626
vt 5.666667 0.396626
vt 5.750000 0.396626
vt 5.833333 0.396626
vt 5.916667 0.396626
vt 6.000000 0.396626
vt 0.000000 0.603374
vt 0.083333 0.603374
vt 0.166667 0.603374
vt 0.250000 0.603374
vt 0.333333 0.603374
vt 0.416667 0.603374
vt 0.500000 0.603374
vt 0.583333 0.603374
vt 0.666667 0.603374
vt 0.750000 0.603374
vt 0.833333 0.603374
vt 0.916667 0.603374
vt 1.000000 0.603374
vt 1.083333 0.603374
vt 1.166667 0.603374
vt 1.250000 0.603374
vt 1.333333 0.603374
vt 1.416667 0.603374
vt 1.500000 0.603374
vt 1.583333 0.603374
vt 1.666667 0.603374
vt 1.750000 0.603374
vt 1.833333 0.603374
vt 1.916667 0.603374
vt 2.000000 0.603374
vt 2.083333 0.603374
vt 2.166667 0.603374
vt 2.250000 0.603374
vt 2.333333 0.603374
vt 2.416667 0.603374
vt 2.500000 0.603374
vt 2.583333 0.603374
vt 2.666667 0.603374
vt 2.750000 0.603374
vt 2.833333 0.603374
vt 2.916667 0.603374
vt 3.000000 0.603374
vt 3.083333 0.603374
vt 3.166667 0.603374
vt 3.250000 0.603374
vt 3.333333 0.603374
vt 3.416667 0.603374
vt 3.500000 0.603374
vt 3.583333 0.603374
vt 3.666667 0.603374
vt 3.750000 0.603374
vt 3.833333 0.603374
vt 3.916667 0.603374
vt 4.000000 0.603374
vt 4.083333 0.603374
vt 4.166667 0.603374
vt 4.250000 0.603374
vt 4.333333 0.603374
vt 4.416667 0.603374
vt 4.500000 0.603374
vt 4.583333 0.603374
vt 4.666667 0.603374
vt 4.750000 0.603374
vt 4.833333 0.603374
vt 4.916667 0.603374
vt 5.000000 0.603374
vt 5.083333 0.603374
vt 5.166667 0.603374
vt 5.250000 0.603374
vt 5.333333 0.603374
vt 5.416667 0.603374
vt 5.500000 0.603374
vt 5.583333 0.603374
vt 5.666667 0.603374
vt 5.750000 0.603374
vt 5.833333 0.603374
vt 5.916667 0.603374
vt 6.000000 0.603374
vt 0.000000 0.603374
vt 0.083333 0.603374
vt 0.166667 0.603374
vt 0.250000 0.603374
vt 0.333333 0.603374
vt 0.416667 0.603374
vt 0.500000 0.603374
vt 0.583333 0.603374
vt 0.666667 0.603374
vt 0.750000 0.603374
vt 0.833333 0.603374
vt 0.916667 0.603374
vt 1.000000 0.603374
vt 1.083333 0.603374
vt 1.166667 0.603374
vt 1.250000 0.603374
vt 1.333333 0.603374
vt 1.416667 0.603374
vt 1.500000 0.603374
vt 1.583333 0.603374
vt 1.666667 0.603374
vt 1.750000 0.603374
vt 1.833333 0.603374
vt 1.916667 0.603374
vt 2.000000 0.603374
vt 2.083333 0.603374
vt 2.166667 0.603374
vt 2.250000 0.603374
vt 2.333333 0.603374
vt 2.416667 0.603374
vt 2.500000 0.603374
vt 2.583333 0.603374
vt 2.666667 0.603374
vt 2.750000 0.603374
vt 2.833333 0.603374
vt 2.916667 0.603374
vt 3.000000 0.603374
vt 3.083333 0.603374
vt 3.166667 0.603374
vt 3.250000 0.603374
vt 3.333333 0.603374
vt 3.416667 0.603374
vt 3.500000 0.603374
vt 3.583333 0.603374
vt 3.666667 0.603374
vt 3.750000 0.603374
vt 3.833333 0.603374
vt 3.916667 0.603374
vt 4.000000 0.603374
vt 4.083333 0.603374
vt 4.166667 0.603374
vt 4.250000 0.603374
vt 4.333333 0.603374
vt 4.416667 0.603374
vt 4.500000 0.603374
vt 4.583333 0.603374
vt 4.666667 0.603374
vt 4.750000 0.603374
vt 4.833333 0.603374
vt 4.916667 0.603374
vt 5.000000 0.603374
vt 5.083333 0.603374
vt 5.166667 0.603374
vt 5.250000 0.603374
vt 5.333333 0.603374
vt 5.416667 0.603374
vt 5.500000 0.603374
vt 5.583333 0.603374
vt 5.666667 0.603374
vt 5.750000 0.603374
vt 5.833333 0.603374
vt 5.916667 0.603374
vt 6.000000 0.603374
vt 0.000000 0.639205
vt 0.083333 0.639205
vt 0.166667 0.639205
vt 0.250000 0.639205
vt 0.333333 0.639205
vt 0.416667 0.639205
vt 0.500000 0.639205
vt 0.583333 0.639205
vt 0.666667 0.639205
vt 0.750000 0.639205
vt 0.833333 0.639205
vt 0.916667 0.639205
vt 1.000000 0.639205
vt 1.083333 0.639205
vt 1.166667 0.639205
vt 1.250000 0.639205
vt 1.333333 0.639205
vt 1.416667 0.639205
vt 1.500000 0.639205
vt 1.583333 0.639205
vt 1.666667 0.639205
vt 1.750000 0.639205
vt 1.833333 0.639205
vt 1.916667 0.639205
vt 2.000000 0.639205
vt 2.083333 0.639205
vt 2.166667 0.639205
vt 2.250000 0.639205
vt 2.333333 0.639205
vt 2.416667 0.639205
vt 2.500000 0.639205
vt 2.583333 0.639205
vt 2.666667 0.639205
vt 2.750000 0.639205
vt 2.833333 0.639205
vt 2.916667 0.639205
vt 3.000000 0.639205
vt 3.083333 0.639205
vt 3.166667 0.639205
vt 3.250000 0.639205
vt 3.333333 0.639205
vt 3.416667 0.639205
vt 3.500000 0.639205
vt 3.583333 0.639205
vt 3.666667 0.639205
vt 3.750000 0.639205
vt 3.833333 0.639205
vt 3.916667 0.639205
vt 4.000000 0.639205
vt 4.083333 0.639205
vt 4.166667 0.639205
vt 4.250000 0.639205
vt 4.333333 0.639205
vt 4.416667 0.639205
vt 4.500000 0.639205
vt 4.583333 0.639205
vt 4.666667 0.639205
vt 4.750000 0.639205
vt 4.833333 0.639205
vt 4.916667 0.639205
vt 5.000000 0.639205
vt 5.083333 0.639205
vt 5.166667 0.639205
vt 5.250000 0.639205
vt 5.333333 0.639205
vt 5.416667 0.639205
vt 5.500000 0.639205
vt 5.583333 0.639205
vt 5.666667 0.639205
vt 5.750000 0.639205
vt 5.833333 0.639205
vt 5.916667 0.639205
vt 6.000000 0.639205
vt 0.944944 0.500000
vt 0.943251 0.538779
vt 0.938185 0.577264
vt 0.929783 0.615160
vt 0.918111 0.652180
vt 0.903257 0.688042
vt 0.885333 0.722472
vt 0.864477 0.755210
vt 0.840847 0.786005
vt 0.814623 0.814623
vt 0.786005 0.840847
vt 0.755210 0.864477
vt 0.722472 0.885333
vt 0.688042 0.903257
vt 0.652180 0.918111
vt 0.615160 0.929783
vt 0.577264 0.938185
vt 0.538779 0.943251
vt 0.500000 0.944944
vt 0.461221 0.943251
vt 0.422736 0.938185
vt 0.384840 0.929783
vt 0.347820 0.918111
vt 0.311958 0.903257
vt 0.277528 0.885333
vt 0.244790 0.864477
vt 0.213995 0.840847
vt 0.185377 0.814623
vt 0.159153 0.786005
vt 0.135523 0.755210
vt 0.114667 0.722472
vt 0.096743 0.688042
vt 0.081889 0.652180
vt 0.070217 0.615160
vt 0.061815 0.577264
vt 0.056749 0.538779
vt 0.055056 0.500000
vt 0.056749 0.461221
vt 0.061815 0.422736
vt 0.070217 0.384840
vt 0.081889 0.347820
vt 0.096743 0.311958
vt 0.114667 0.277528
vt 0.135523 0.244790
vt 0.159153 0.213995
vt 0.185377 0.185377
vt 0.213995 0.159153
vt 0.244790 0.135523
vt 0.277528 0.114667
vt 0.311958 0.096743
vt 0.347820 0.081889
vt 0.384840 0.070217
vt 0.422736 0.061815
vt 0.461221 0.056749
vt 0.500000 0.055056
vt 0.538779 0.056749
vt 0.577264 0.061815
vt 0.615160 0.070217
vt 0.652180 0.081889
vt 0.688042 0.096743
vt 0.722472 0.114667
vt 0.755210 0.135523
vt 0.786005 0.159153
vt 0.814623 0.185377
vt 0.840847 0.213995
vt 0.864477 0.244790
vt 0.885333 0.277528
vt 0.903257 0.311958
vt 0.918111 0.347820
vt 0.929783 0.384840
vt 0.938185 0.422736
vt 0.943251 0.461221
vt 0.944944 0.500000
vt 0.500000 0.500000
vt 0.500000 0.500000
vt 0.500000 0.500000
vt 0.500000 0.500000
vt 0.500000 0.500000
vt 0.500000 0.500000
vt 0.500000 0.500000
vt 0.500000 0.500000
vt 0.500000 0.500000
vt 0.500000 0.500000
vt 0.500000 0.500000
vt 0.500000 0.500000
vt 0.500000 0.500000
vt 0.500000 0.500000
vt 0.500000 0.500000
vt 0.500000 0.500000
vt 0.500000 0.500000
vt 0.500000 0.500000
vt 0.500000 0.500000
vt 0.500000 0.500000
vt 0.500000 0.500000
vt 0.500000 0.500000
vt 0.500000 0.500000
vt 0.500000 0.500000
vt 0.500000 0.500000
vt 0.500000 0.500000
vt 0.500000 0.500000
vt 0.500000 0.500000
vt 0.500000 0.500000
vt 0.500000 0.500000
vt 0.500000 0.500000
vt 0.500000 0.500000
vt 0.500000 0.500000
vt 0.500000 0.500000
vt 0.500000 0.500000
vt 0.500000 0.500000
vt 0.500000 0.500000
vt 0.500000 0.500000
vt 0.500000 0.500000
vt 0.500000 0.500000
vt 0.500000 0.500000
vt 0.500000 0.500000
vt 0.500000 0.500000
vt 0.500000 0.500000
vt 0.500000 0.500000
vt 0.500000 0.500000
vt 0.500000 0.500000
vt 0.500000 0.500000
vt 0.500000 0.500000
vt 0.500000 0.500000
vt 0.500000 0.500000
vt 0.500000 0.500000
vt 0.500000 0.500000
vt 0.500000 0.500000
vt 0.500000 0.500000
vt 0.500000 0.500000
vt 0.500000 0.500000
vt 0.500000 0.500000
vt 0.500000 0.500000
vt 0.500000 0.500000
vt 0.500000 0.500000
vt 0.500000 0.500000
vt 0.500000 0.500000
vt 0.500000 0.500000
vt 0.500000 0.500000
vt 0.500000 0.500000
vt 0.500000 0.500000
vt 0.500000 0.500000
vt 0.500000 0.500000
vt 0.500000 0.500000
vt 0.500000 0.500000
vt 0.500000 0.500000
vt 0.500000 0.500000
usemtl mat
f 75/75 74/74 2/2
f 76/76 75/75 3/3
f 77/77 76/76 4/4
f 78/78 77/77 5/5
f 79/79 78/78 6/6
f 80/80 79/79 7/7
f 81/81 80/80 8/8
f 82/82 81/81 9/9
f 83/83 82/82 10/10
f 84/84 83/83 11/11
f 85/85 84/84 12/12
f 86/86 85/85 13/13
f 87/87 86/86 14/14
f 88/88 87/87 15/15
f 89/89 88/88 16/16
f 90/90 89/89 17/17
f 91/91 90/90 18/18
f 92/92 91/91 19/19
f 93/93 92/92 20/20
f 94/94 93/93 21/21
f 95/95 94/94 22/22
f 96/96 95/95 23/23
f 97/97 96/96 24/24
f 98/98 97/97 25/25
f 99/99 98/98 26/26
f 100/100 99/99 27/27
f 101/101 100/100 28/28
f 102/102 101/101 29/29
f 103/103 102/102 30/30
f 104/104 103/103 31/31
f 105/105 104/104 32/32
f 106/106 105/105 33/33
f 107/107 106/106 34/34
f 108/108 107/107 35/35
f 109/109 108/108 36/36
f 110/110 109/109 37/37
f 111/111 110/110 38/38
f 112/112 111/111 39/39
f 113/113 112/112 40/40
f 114/114 113/113 41/41
f 115/115 114/114 42/42
f 116/116 115/115 43/43
f 117/117 116/116 44/44
f 118/118 117/117 45/45
f 119/119 118/118 46/46
f 120/120 119/119 47/47
f 121/121 120/120 48/48
f 122/122 121/121 49/49
f 123/123 122/122 50/50
f 124/124 123/123 51/51
f 125/125 124/124 52/52
f 126/126 125/125 53/53
f 127/127 126/126 54/54
f 128/128 127/127 55/55
f 129/129 128/128 56/56
f 130/130 129/129 57/57
f 131/131 130/130 58/58
f 132/132 131/131 59/59
f 133/133 132/132 60/60
f 134/134 133/133 61/61
f 135/135 134/134 62/62
f 136/136 135/135 63/63
f 137/137 136/136 64/64
f 138/138 137/137 65/65
f 139/139 138/138 66/66
f 140/140 139/139 67/67
f 141/141 140/140 68/68
f 142/142 141/141 69/69
f 143/143 142/142 70/70
f 144/144 143/143 71/71
f 145/145 144/144 72/72
f 146/146 145/145 73/73
f 148/148 220/220 147/147
f 221/221 220/220 148/148
f 149/149 221/221 148/148
f 222/222 221/221 149/149
f 150/150 222/222 149/149
f 223/223 222/222 150/150
f 151/151 223/223 150/150
f 224/224 223/223 151/151
f 152/152 224/224 151/151
f 225/225 224/224 152/152
f 153/153 225/225 152/152
f 226/226 225/225 153/153
f 154/154 226/226 153/153
f 227/227 226/226 154/154
f 155/155 227/227 154/154
f 228/228 227/227 155/155
f 156/156 228/228 155/155
f 229/229 228/228 156/156
f 157/157 229/229 156/156
f 230/230 229/229 157/157
f 158/158 230/230 157/157
f 231/231 230/230 158/158
f 159/159 231/231 158/158
f 232/232 231/231 159/159
f 160/160 232/232 159/159
f 233/233 232/232 160/160
f 161/161 233/233 160/160
f 234/234 233/233 161/161
f 162/162 234/234 161/161
f 235/235 234/234 162/162
f 163/163 235/235 162/162
f 236/236 235/235 163/163
f 164/164 236/236 163/163
f 237/237 236/236 164/164
f 165/165 237/237 164/164
f 238/238 237/237 165/165
f 166/166 238/238 165/165
f 239/239 238/238 166/166
f 167/167 239/239 166/166
f 240/240 239/239 167/167
f 168/168 240/240 167/167
f 241/241 240/240 168/168
f 169/169 241/241 168/168
f 242/242 241/241 169/169
f 170/170 242/242 169/169
f 243/243 242/242 170/170
f 171/171 243/243 170/170
f 244/244 243/243 171/171
f 172/172 244/244 171/171
f 245/245 244/244 172/172
f 173/173 245/245 172/172
f 246/246 245/245 173/173
f 174/174 246/246 173/173
f 247/247 246/246 174/174
f 175/175 247/247 174/174
f 248/248 247/247 175/175
f 176/176 248/248 175/175
f 249/249 248/248 176/176
f 177/177 249/249 176/176
f 250/250 249/249 177/177
f 178/178 250/250 177/177
f 251/251 250/250 178/178
f 179/179 251/251 178/178
f 252/252 251/251 179/179
f 180/180 252/252 179/179
f 253/253 252/252 180/180
f 181/181 253/253 180/180
f 254/254 253/253 181/181
f 182/182 254/254 181/181
f 255/255 254/254 182/182
f 183/183 255/255 182/182
f 256/256 255/255 183/183
f 184/184 256/256 183/183
f 257/257 256/256 184/184
f 185/185 257/257 184/184
f 258/258 257/257 185/185
f 186/186 258/258 185/185
f 259/259 258/258 186/186
f 187/187 259/259 186/186
f 260/260 259/259 187/187
f 188/188 260/260 187/187
f 261/261 260/260 188/188
f 189/189 261/261 188/188
f 262/262 261/261 189/189
f 190/190 262/262 189/189
f 263/263 262/262 190/190
f 191/191 263/263 190/190
f 264/264 263/263 191/191
f 192/192 264/264 191/191
f 265/265 264/264 192/192
f 193/193 265/265 192/192
f 266/266 265/265 193/193
f 194/194 266/266 193/193
f 267/267 266/266 194/194
f 195/195 267/267 194/194
f 268/268 267/267 195/195
f 196/196 268/268 195/195
f 269/269 268/268 196/196
f 197/197 269/269 196/196
f 270/270 269/269 197/197
f 198/198 270/270 197/197
f 271/271 270/270 198/198
f 199/199 271/271 198/198
f 272/272 271/271 199/199
f 200/200 272/272 199/199
f 273/273 272/272 200/200
f 201/201 273/273 200/200
f 274/274 273/273 201/201
f 202/202 274/274 201/201
f 275/275 274/274 202/202
f 203/203 275/275 202/202
f 276/276 275/275 203/203
f 204/204 276/276 203/203
f 277/277 276/276 204/204
f 205/205 277/277 204/204
f 278/278 277/277 205/205
f 206/206 278/278 205/205
f 279/279 278/278 206/206
f 207/207 279/279 206/206
f 280/280 279/279 207/207
f 208/208 280/280 207/207
f 281/281 280/280 208/208
f 209/209 281/281 208/208
f 282/282 281/281 209/209
f 210/210 282/282 209/209
f 283/283 282/282 210/210
f 211/211 283/283 210/210
f 284/284 283/283 211/211
f 212/212 284/284 211/211
f 285/285 284/284 212/212
f 213/213 285/285 212/212
f 286/286 285/285 213/213
f 214/214 286/286 213/213
f 287/287 286/286 214/214
f 215/215 287/287 214/214
f 288/288 287/287 215/215
f 216/216 288/288 215/215
f 289/289 288/288 216/216
f 217/217 289/289 216/216
f 290/290 289/289 217/217
f 218/218 290/290 217/217
f 291/291 290/290 218/218
f 219/219 291/291 218/218
f 292/292 291/291 219/219
f 294/294 366/366 293/293
f 367/367 366/366 294/294
f 295/295 367/367 294/294
f 368/368 367/367 295/295
f 296/296 368/368 295/295
f 369/369 368/368 296/296
f 297/297 369/369 296/296
f 370/370 369/369 297/297
f 298/298 370/370 297/297
f 371/371 370/370 298/298
f 299/299 371/371 298/298
f 372/372 371/371 299/299
f 300/300 372/372 299/299
f 373/373 372/372 300/300
f 301/301 373/373 300/300
f 374/374 373/373 301/301
f 302/302 374/374 301/301
f 375/375 374/374 302/302
f 303/303 375/375 302/302
f 376/376 375/375 303/303
f 304/304 376/376 303/303
f 377/377 376/376 304/304
f 305/305 377/377 304/304
f 378/378 377/377 305/305
f 306/306 378/378 305/305
f 379/379 378/378 306/306
f 307/307 379/379 306/306
f 380/380 379/379 307/307
f 308/308 380/380 307/307
f 381/381 380/380 308/308
f 309/309 381/381 308/308
f 382/382 381/381 309/309
f 310/310 382/382 309/309
f 383/383 382/382 310/310
f 311/311 383/383 310/310
f 384/384 383/383 311/311
f 312/312 384/384 311/311
f 385/385 384/384 312/312
f 313/313 385/385 312/312
f 386/386 385/385 313/313
f 314/314 386/386 313/313
f 387/387 386/386 314/314
f 315/315 387/387 314/314
f 388/388 387/387 315/315
f 316/316 388/388 315/315
f 389/389 388/388 316/316
f 317/317 389/389 316/316
f 390/390 389/389 317/317
f 318/318 390/390 317/317
f 391/391 390/390 318/318
f 319/319 391/391 318/318
f 392/392 391/391 319/319
f 320/320 392/392 319/319
f 393/393 392/392 320/320
f 321/321 393/393 320/320
f 394/394 393/393 321/321
f 322/322 394/394 321/321
f 395/395 394/394 322/322
f 323/323 395/395 322/322
f 396/396 395/395 323/323
f 324/324 396/396 323/323
f 397/397 396/396 324/324
f 325/325 397/397 324/324
f 398/398 397/397 325/325
f 326/326 398/398 325/325
f 399/399 398/398 326/326
f 327/327 399/399 326/326
f 400/400 399/399 327/327
f 328/328 400/400 327/327
f 401/401 400/400 328/328
f 329/329 401/401 328/328
f 402/402 401/401 329/329
f 330/330 402/402 329/329
f 403/403 402/402 330/330
f 331/331 403/403 330/330
f 404/404 403/403 331/331
f 332/332 404/404 331/331
f 405/405 404/404 332/332
f 333/333 405/405 332/332
f 406/406 405/405 333/333
f 334/334 406/406 333/333
f 407/407 406/406 334/334
f 335/335 407/407 334/334
f 408/408 407/407 335/335
f 336/336 408/408 335/335
f 409/409 408/408 336/336
f 337/337 409/409 336/336
f 410/410 409/409 337/337
f 338/338 410/410 337/337
f 411/411 410/410 338/338
f 339/339 411/411 338/338
f 412/412 411/411 339/339
f 340/340 412/412 339/339
f 413/413 412/412 340/340
f 341/341 413/413 340/340
f 414/414 413/413 341/341
f 342/342 414/414 341/341
f 415/415 414/414 342/342
f 343/343 415/415 342/342
f 416/416 415/415 343/343
f 344/344 416/416 343/343
f 417/417 416/416 344/344
f 345/345 417/417 344/344
f 418/418 417/417 345/345
f 346/346 418/418 345/345
f 419/419 418/418 346/346
f 347/347 419/419 346/346
f 420/420 419/419 347/347
f 348/348 420/420 347/347
f 421/421 420/420 348/348
f 349/349 421/421 348/348
f 422/422 421/421 349/349
f 350/350 422/422 349/349
f 423/423 422/422 350/350
f 351/351 423/423 350/350
f 424/424 423/423 351/351
f 352/352 424/424 351/351
f 425/425 424/424 352/352
f 353/353 425/425 352/352
f 426/426 425/425 353/353
f 354/354 426/426 353/353
f 427/427 426/426 354/354
f 355/355 427/427 354/354
f 428/428 427/427 355/355
f 356/356 428/428 355/355
f 429/429 428/428 356/356
f 357/357 429/429 356/356
f 430/430 429/429 357/357
f 358/358 430/430 357/357
f 431/431 430/430 358/358
f 359/359 431/431 358/358
f 432/432 431/431 359/359
f 360/360 432/432 359/359
f 433/433 432/432 360/360
f 361/361 433/433 360/360
f 434/434 433/433 361/361
f 362/362 434/434 361/361
f 435/435 434/434 362/362
f 363/363 435/435 362/362
f 436/436 435/435 363/363
f 364/364 436/436 363/363
f 437/437 436/436 364/364
f 365/365 437/437 364/364
f 438/438 437/437 365/365
f 440/440 512/512 439/439
f 513/513 512/512 440/440
f 441/441 513/513 440/440
f 514/514 513/513 441/441
f 442/442 514/514 441/441
f 515/515 514/514 442/442
f 443/443 515/515 442/442
f 516/516 515/515 443/443
f 444/444 516/516 443/443
f 517/517 516/516 444/444
f 445/445 517/517 444/444
f 518/518 517/517 445/445
f 446/446 518/518 445/445
f 519/519 518/518 446/446
f 447/447 519/519 446/446
f 520/520 519/519 447/447
f 448/448 520/520 447/447
f 521/521 520/520 448/448
f 449/449 521/521 448/448
f 522/522 521/521 449/449
f 450/450 522/522 449/449
f 523/523 522/522 450/450
f 451/451 523/523 450/450
f 524/524 523/523 451/451
f 452/452 524/524 451/451
f 525/525 524/524 452/452
f 453/453 525/525 452/452
f 526/526 525/525 453/453
f 454/454 526/526 453/453
f 527/527 526/526 454/454
f 455/455 527/527 454/454
f 528/528 527/527 455/455
f 456/456 528/528 455/455
f 529/529 528/528 456/456
f 457/457 529/529 456/456
f 530/530 529/529 457/457
f 458/458 530/530 457/457
f 531/531 530/530 458/458
f 459/459 531/531 458/458
f 532/532 531/531 459/459
f 460/460 532/532 459/459
f 533/533 532/532 460/460
f 461/461 533/533 460/460
f 534/534 533/533 461/461
f 462/462 534/534 461/461
f 535/535 534/534 462/462
f 463/463 535/535 462/462
f 536/536 535/535 463/463
f 464/464 536/536 463/463
f 537/537 536/536 464/464
f 465/465 537/537 464/464
f 538/538 537/537 465/465
f 466/466 538/538 465/465
f 539/539 538/538 466/466
f 467/467 539/539 466/466
f 540/540 539/539 467/467
f 468/468 540/540 467/467
f 541/541 540/540 468/468
f 469/469 541/541 468/468
f 542/542 541/541 469/469
f 470/470 542/542 469/469
f 543/543 542/542 470/470
f 471/471 543/543 470/470
f 544/544 543/543 471/471
f 472/472 544/544 471/471
f 545/545 544/544 472/472
f 473/473 545/545 472/472
f 546/546 545/545 473/473
f 474/474 546/546 473/473
f 547/547 546/546 474/474
f 475/475 547/547 474/474
f 548/548 547/547 475/475
f 476/476 548/548 475/475
f 549/549 548/548 476/476
f 477/477 549/549 476/476
f 550/550 549/549 477/477
f 478/478 550/550 477/477
f 551/551 550/550 478/478
f 479/479 551/551 478/478
f 552/552 551/551 479/479
f 480/480 552/552 479/479
f 553/553 552/552 480/480
f 481/481 553/553 480/480
f 554/554 553/553 481/481
f 482/482 554/554 481/481
f 555/555 554/554 482/482
f 483/483 555/555 482/482
f 556/556 555/555 483/483
f 484/484 556/556 483/483
f 557/557 556/556 484/484
f 485/485 557/557 484/484
f 558/558 557/557 485/485
f 486/486 558/558 485/485
f 559/559 558/558 486/486
f 487/487 559/559 486/486
f 560/560 559/559 487/487
f 488/488 560/560 487/487
f 561/561 560/560 488/488
f 489/489 561/561 488/488
f 562/562 561/561 489/489
f 490/490 562/562 489/489
f 563/563 562/562 490/490
f 491/491 563/563 490/490
f 564/564 563/563 491/491
f 492/492 564/564 491/491
f 565/565 564/564 492/492
f 493/493 565/565 492/492
f 566/566 565/565 493/493
f 494/494 566/566 493/493
f 567/567 566/566 494/494
f 495/495 567/567 494/494
f 568/568 567/567 495/495
f 496/496 568/568 495/495
f 569/569 568/568 496/496
f 497/497 569/569 496/496
f 570/570 569/569 497/497
f 498/498 570/570 497/497
f 571/571 570/570 498/498
f 499/499 571/571 498/498
f 572/572 571/571 499/499
f 500/500 572/572 499/499
f 573/573 572/572 500/500
f 501/501 573/573 500/500
f 574/574 573/573 501/501
f 502/502 574/574 501/501
f 575/575 574/574 502/502
f 503/503 575/575 502/502
f 576/576 575/575 503/503
f 504/504 576/576 503/503
f 577/577 576/576 504/504
f 505/505 577/577 504/504
f 578/578 577/577 505/505
f 506/506 578/578 505/505
f 579/579 578/578 506/506
f 507/507 579/579 506/506
f 580/580 579/579 507/507
f 508/508 580/580 507/507
f 581/581 580/580 508/508
f 509/509 581/581 508/508
f 582/582 581/581 509/509
f 510/510 582/582 509/509
f 583/583 582/582 510/510
f 511/511 583/583 510/510
f 584/584 583/583 511/511
f 586/586 658/658 585/585
f 587/587 659/659 586/586
f 588/588 660/660 587/587
f 589/589 661/661 588/588
f 590/590 662/662 589/589
f 591/591 663/663 590/590
f 592/592 664/664 591/591
f 593/593 665/665 592/592
f 594/594 666/666 593/593
f 595/595 667/667 594/594
f 596/596 668/668 595/595
f 597/597 669/669 596/596
f 598/598 670/670 597/597
f 599/599 671/671 598/598
f 600/600 672/672 599/599
f 601/601 673/673 600/600
f 602/602 674/674 601/601
f 603/603 675/675 602/602
f 604/604 676/676 603/603
f 605/605 677/677 604/604
f 606/606 678/678 605/605
f 607/607 679/679 606/606
f 608/608 680/680 607/607
f 609/609 681/681 608/608
f 610/610 682/682 609/609
f 611/611 683/683 610/610
f 612/612 684/684 611/611
f 613/613 685/685 612/612
f 614/614 686/686 613/613
f 615/615 687/687 614/614
f 616/616 688/688 615/615
f 617/617 689/689 616/616
f 618/618 690/690 617/617
f 619/619 691/691 618/618
f 620/620 692/692 619/619
f 621/621 693/693 620/620
f 622/622 694/694 621/621
f 623/623 695/695 622/622
f 624/624 696/696 623/623
f 625/625 697/697 624/624
f 626/626 698/698 625/625
f 627/627 699/699 626/626
f 628/628 700/700 627/627
f 629/629 701/701 628/628
f 630/630 702/702 629/629
f 631/631 703/703 630/630
f 632/632 704/704 631/631
f 633/633 705/705 632/632
f 634/634 706/706 633/633
f 635/635 707/707 634/634
f 636/636 708/708 635/635
f 637/637 709/709 636/636
f 638/638 710/710 637/637
f 639/639 711/711 638/638
f 640/640 712/712 639/639
f 641/641 713/713 640/640
f 642/642 714/714 641/641
f 643/643 715/715 642/642
f 644/644 716/716 643/643
f 645/645 717/717 644/644
f 646/646 718/718 645/645
f 647/647 719/719 646/646
f 648/648 720/720 647/647
f 649/649 721/721 648/648
f 650/650 722/722 649/649
f 651/651 723/723 650/650
f 652/652 724/724 651/651
f 653/653 725/725 652/652
f 654/654 726/726 653/653
f 655/655 727/727 654/654
f 656/656 728/728 655/655
f 657/657 729/729 656/656
