# generated by mjlab asset_pipeline; 1016 faces
mtllib stick_vis.mtl
v -0.130000 0.000000 -0.000000
v -0.130000 0.000000 -0.000000
v -0.130000 0.000000 -0.000000
v -0.130000 0.000000 -0.000000
v -0.130000 0.000000 -0.000000
v -0.130000 0.000000 -0.000000
v -0.130000 0.000000 -0.000000
v -0.130000 0.000000 -0.000000
v -0.130000 0.000000 -0.000000
v -0.130000 0.000000 -0.000000
v -0.130000 0.000000 -0.000000
v -0.130000 0.000000 -0.000000
v -0.130000 0.000000 -0.000000
v -0.130000 0.000000 -0.000000
v -0.130000 0.000000 -0.000000
v -0.130000 0.000000 -0.000000
v -0.130000 0.000000 -0.000000
v -0.130000 0.000000 -0.000000
v -0.130000 0.000000 -0.000000
v -0.130000 0.000000 -0.000000
v -0.130000 0.000000 -0.000000
v -0.130000 0.000000 -0.000000
v -0.130000 0.000000 -0.000000
v -0.130000 0.000000 -0.000000
v -0.130000 0.000000 -0.000000
v -0.130000 0.000000 -0.000000
v -0.130000 0.000000 -0.000000
v -0.130000 0.000000 -0.000000
v -0.130000 0.000000 -0.000000
v -0.130000 0.000000 -0.000000
v -0.130000 0.000000 -0.000000
v -0.130000 0.000000 -0.000000
v -0.130000 0.000000 -0.000000
v -0.130000 0.000000 -0.008500
v -0.130000 0.001658 -0.008337
v -0.130000 0.003253 -0.007853
v -0.130000 0.004722 -0.007067
v -0.130000 0.006010 -0.006010
v -0.130000 0.007067 -0.004722
v -0.130000 0.007853 -0.003253
v -0.130000 0.008337 -0.001658
v -0.130000 0.008500 -0.000000
v -0.130000 0.008337 0.001658
v -0.130000 0.007853 0.003253
v -0.130000 0.007067 0.004722
v -0.130000 0.006010 0.006010
v -0.130000 0.004722 0.007067
v -0.130000 0.003253 0.007853
v -0.130000 0.001658 0.008337
v -0.130000 0.000000 0.008500
v -0.130000 -0.001658 0.008337
v -0.130000 -0.003253 0.007853
v -0.130000 -0.004722 0.007067
v -0.130000 -0.006010 0.006010
v -0.130000 -0.007067 0.004722
v -0.130000 -0.007853 0.003253
v -0.130000 -0.008337 0.001658
v -0.130000 -0.008500 -0.000000
v -0.130000 -0.008337 -0.001658
v -0.130000 -0.007853 -0.003253
v -0.130000 -0.007067 -0.004722
v -0.130000 -0.006010 -0.006010
v -0.130000 -0.004722 -0.007067
v -0.130000 -0.003253 -0.007853
v -0.130000 -0.001658 -0.008337
v -0.130000 -0.000000 -0.008500
v -0.130000 0.000000 -0.008500
v -0.130000 0.001658 -0.008337
v -0.130000 0.003253 -0.007853
v -0.130000 0.004722 -0.007067
v -0.130000 0.006010 -0.006010
v -0.130000 0.007067 -0.004722
v -0.130000 0.007853 -0.003253
v -0.130000 0.008337 -0.001658
v -0.130000 0.008500 -0.000000
v -0.130000 0.008337 0.001658
v -0.130000 0.007853 0.003253
v -0.130000 0.007067 0.004722
v -0.130000 0.006010 0.006010
v -0.130000 0.004722 0.007067
v -0.130000 0.003253 0.007853
v -0.130000 0.001658 0.008337
v -0.130000 0.000000 0.008500
v -0.130000 -0.001658 0.008337
v -0.130000 -0.003253 0.007853
v -0.130000 -0.004722 0.007067
v -0.130000 -0.006010 0.006010
v -0.130000 -0.007067 0.004722
v -0.130000 -0.007853 0.003253
v -0.130000 -0.008337 0.001658
v -0.130000 -0.008500 -0.000000
v -0.130000 -0.008337 -0.001658
v -0.130000 -0.007853 -0.003253
v -0.130000 -0.007067 -0.004722
v -0.130000 -0.006010 -0.006010
v -0.130000 -0.004722 -0.007067
v -0.130000 -0.003253 -0.007853
v -0.130000 -0.001658 -0.008337
v -0.130000 -0.000000 -0.008500
v -0.127500 0.000000 -0.011000
v -0.127500 0.002146 -0.010789
v -0.127500 0.004210 -0.010163
v -0.127500 0.006111 -0.009146
v -0.127500 0.007778 -0.007778
v -0.127500 0.009146 -0.006111
v -0.127500 0.010163 -0.004210
v -0.127500 0.010789 -0.002146
v -0.127500 0.011000 -0.000000
v -0.127500 0.010789 0.002146
v -0.127500 0.010163 0.004210
v -0.127500 0.009146 0.006111
v -0.127500 0.007778 0.007778
v -0.127500 0.006111 0.009146
v -0.127500 0.004210 0.010163
v -0.127500 0.002146 0.010789
v -0.127500 0.000000 0.011000
v -0.127500 -0.002146 0.010789
v -0.127500 -0.004210 0.010163
v -0.127500 -0.006111 0.009146
v -0.127500 -0.007778 0.007778
v -0.127500 -0.009146 0.006111
v -0.127500 -0.010163 0.004210
v -0.127500 -0.010789 0.002146
v -0.127500 -0.011000 -0.000000
v -0.127500 -0.010789 -0.002146
v -0.127500 -0.010163 -0.004210
v -0.127500 -0.009146 -0.006111
v -0.127500 -0.007778 -0.007778
v -0.127500 -0.006111 -0.009146
v -0.127500 -0.004210 -0.010163
v -0.127500 -0.002146 -0.010789
v -0.127500 -0.000000 -0.011000
v -0.127500 0.000000 -0.011000
v -0.127500 0.002146 -0.010789
v -0.127500 0.004210 -0.010163
v -0.127500 0.006111 -0.009146
v -0.127500 0.007778 -0.007778
v -0.127500 0.009146 -0.006111
v -0.127500 0.010163 -0.004210
v -0.127500 0.010789 -0.002146
v -0.127500 0.011000 -0.000000
v -0.127500 0.010789 0.002146
v -0.127500 0.010163 0.004210
v -0.127500 0.009146 0.006111
v -0.127500 0.007778 0.007778
v -0.127500 0.006111 0.009146
v -0.127500 0.004210 0.010163
v -0.127500 0.002146 0.010789
v -0.127500 0.000000 0.011000
v -0.127500 -0.002146 0.010789
v -0.127500 -0.004210 0.010163
v -0.127500 -0.006111 0.009146
v -0.127500 -0.007778 0.007778
v -0.127500 -0.009146 0.006111
v -0.127500 -0.010163 0.004210
v -0.127500 -0.010789 0.002146
v -0.127500 -0.011000 -0.000000
v -0.127500 -0.010789 -0.002146
v -0.127500 -0.010163 -0.004210
v -0.127500 -0.009146 -0.006111
v -0.127500 -0.007778 -0.007778
v -0.127500 -0.006111 -0.009146
v -0.127500 -0.004210 -0.010163
v -0.127500 -0.002146 -0.010789
v -0.127500 -0.000000 -0.011000
v 0.127500 0.000000 -0.011000
v 0.127500 0.002146 -0.010789
v 0.127500 0.004210 -0.010163
v 0.127500 0.006111 -0.009146
v 0.127500 0.007778 -0.007778
v 0.127500 0.009146 -0.006111
v 0.127500 0.010163 -0.004210
v 0.127500 0.010789 -0.002146
v 0.127500 0.011000 0.000000
v 0.127500 0.010789 0.002146
v 0.127500 0.010163 0.004210
v 0.127500 0.009146 0.006111
v 0.127500 0.007778 0.007778
v 0.127500 0.006111 0.009146
v 0.127500 0.004210 0.010163
v 0.127500 0.002146 0.010789
v 0.127500 0.000000 0.011000
v 0.127500 -0.002146 0.010789
v 0.127500 -0.004210 0.010163
v 0.127500 -0.006111 0.009146
v 0.127500 -0.007778 0.007778
v 0.127500 -0.009146 0.006111
v 0.127500 -0.010163 0.004210
v 0.127500 -0.010789 0.002146
v 0.127500 -0.011000 0.000000
v 0.127500 -0.010789 -0.002146
v 0.127500 -0.010163 -0.004210
v 0.127500 -0.009146 -0.006111
v 0.127500 -0.007778 -0.007778
v 0.127500 -0.006111 -0.009146
v 0.127500 -0.004210 -0.010163
v 0.127500 -0.002146 -0.010789
v 0.127500 -0.000000 -0.011000
v 0.127500 0.000000 -0.011000
v 0.127500 0.002146 -0.010789
v 0.127500 0.004210 -0.010163
v 0.127500 0.006111 -0.009146
v 0.127500 0.007778 -0.007778
v 0.127500 0.009146 -0.006111
v 0.127500 0.010163 -0.004210
v 0.127500 0.010789 -0.002146
v 0.127500 0.011000 0.000000
v 0.127500 0.010789 0.002146
v 0.127500 0.010163 0.004210
v 0.127500 0.009146 0.006111
v 0.127500 0.007778 0.007778
v 0.127500 0.006111 0.009146
v 0.127500 0.004210 0.010163
v 0.127500 0.002146 0.010789
v 0.127500 0.000000 0.011000
v 0.127500 -0.002146 0.010789
v 0.127500 -0.004210 0.010163
v 0.127500 -0.006111 0.009146
v 0.127500 -0.007778 0.007778
v 0.127500 -0.009146 0.006111
v 0.127500 -0.010163 0.004210
v 0.127500 -0.010789 0.002146
v 0.127500 -0.011000 0.000000
v 0.127500 -0.010789 -0.002146
v 0.127500 -0.010163 -0.004210
v 0.127500 -0.009146 -0.006111
v 0.127500 -0.007778 -0.007778
v 0.127500 -0.006111 -0.009146
v 0.127500 -0.004210 -0.010163
v 0.127500 -0.002146 -0.010789
v 0.127500 -0.000000 -0.011000
v 0.130000 0.000000 -0.008500
v 0.130000 0.001658 -0.008337
v 0.130000 0.003253 -0.007853
v 0.130000 0.004722 -0.007067
v 0.130000 0.006010 -0.006010
v 0.130000 0.007067 -0.004722
v 0.130000 0.007853 -0.003253
v 0.130000 0.008337 -0.001658
v 0.130000 0.008500 0.000000
v 0.130000 0.008337 0.001658
v 0.130000 0.007853 0.003253
v 0.130000 0.007067 0.004722
v 0.130000 0.006010 0.006010
v 0.130000 0.004722 0.007067
v 0.130000 0.003253 0.007853
v 0.130000 0.001658 0.008337
v 0.130000 0.000000 0.008500
v 0.130000 -0.001658 0.008337
v 0.130000 -0.003253 0.007853
v 0.130000 -0.004722 0.007067
v 0.130000 -0.006010 0.006010
v 0.130000 -0.007067 0.004722
v 0.130000 -0.007853 0.003253
v 0.130000 -0.008337 0.001658
v 0.130000 -0.008500 0.000000
v 0.130000 -0.008337 -0.001658
v 0.130000 -0.007853 -0.003253
v 0.130000 -0.007067 -0.004722
v 0.130000 -0.006010 -0.006010
v 0.130000 -0.004722 -0.007067
v 0.130000 -0.003253 -0.007853
v 0.130000 -0.001658 -0.008337
v 0.130000 -0.000000 -0.008500
v 0.130000 0.000000 -0.008500
v 0.130000 0.001658 -0.008337
v 0.130000 0.003253 -0.007853
v 0.130000 0.004722 -0.007067
v 0.130000 0.006010 -0.006010
v 0.130000 0.007067 -0.004722
v 0.130000 0.007853 -0.003253
v 0.130000 0.008337 -0.001658
v 0.130000 0.008500 0.000000
v 0.130000 0.008337 0.001658
v 0.130000 0.007853 0.003253
v 0.130000 0.007067 0.004722
v 0.130000 0.006010 0.006010
v 0.130000 0.004722 0.007067
v 0.130000 0.003253 0.007853
v 0.130000 0.001658 0.008337
v 0.130000 0.000000 0.008500
v 0.130000 -0.001658 0.008337
v 0.130000 -0.003253 0.007853
v 0.130000 -0.004722 0.007067
v 0.130000 -0.006010 0.006010
v 0.130000 -0.007067 0.004722
v 0.130000 -0.007853 0.003253
v 0.130000 -0.008337 0.001658
v 0.130000 -0.008500 0.000000
v 0.130000 -0.008337 -0.001658
v 0.130000 -0.007853 -0.003253
v 0.130000 -0.007067 -0.004722
v 0.130000 -0.006010 -0.006010
v 0.130000 -0.004722 -0.007067
v 0.130000 -0.003253 -0.007853
v 0.130000 -0.001658 -0.008337
v 0.130000 -0.000000 -0.008500
v 0.130000 0.000000 0.000000
v 0.130000 0.000000 0.000000
v 0.130000 0.000000 0.000000
v 0.130000 0.000000 0.000000
v 0.130000 0.000000 0.000000
v 0.130000 0.000000 0.000000
v 0.130000 0.000000 0.000000
v 0.130000 0.000000 0.000000
v 0.130000 0.000000 0.000000
v 0.130000 0.000000 0.000000
v 0.130000 0.000000 0.000000
v 0.130000 0.000000 0.000000
v 0.130000 0.000000 0.000000
v 0.130000 0.000000 0.000000
v 0.130000 0.000000 0.000000
v 0.130000 0.000000 0.000000
v 0.130000 0.000000 0.000000
v 0.130000 0.000000 0.000000
v 0.130000 0.000000 0.000000
v 0.130000 0.000000 0.000000
v 0.130000 0.000000 0.000000
v 0.130000 0.000000 0.000000
v 0.130000 0.000000 0.000000
v 0.130000 0.000000 0.000000
v 0.130000 0.000000 0.000000
v 0.130000 0.000000 0.000000
v 0.130000 0.000000 0.000000
v 0.130000 0.000000 0.000000
v 0.130000 0.000000 0.000000
v 0.130000 0.000000 0.000000
v 0.130000 0.000000 0.000000
v 0.130000 0.000000 0.000000
v 0.130000 0.000000 0.000000
v 0.090664 -0.010980 0.000000
v 0.090632 -0.010443 -0.003399
v 0.090537 -0.008883 -0.006466
v 0.090390 -0.006454 -0.008899
v 0.090205 -0.003393 -0.010462
v 0.090000 -0.000000 -0.011000
v 0.089795 0.003393 -0.010462
v 0.089610 0.006454 -0.008899
v 0.089463 0.008883 -0.006466
v 0.089368 0.010443 -0.003399
v 0.089336 0.010980 -0.000000
v 0.089368 0.010443 0.003399
v 0.089463 0.008883 0.006466
v 0.089610 0.006454 0.008899
v 0.089795 0.003393 0.010462
v 0.090000 0.000000 0.011000
v 0.090205 -0.003393 0.010462
v 0.090390 -0.006454 0.008899
v 0.090537 -0.008883 0.006466
v 0.090632 -0.010443 0.003399
v 0.090664 -0.010980 0.000000
v 0.094942 -0.010701 0.000000
v 0.094877 -0.010167 -0.003399
v 0.094689 -0.008616 -0.006466
v 0.094395 -0.006200 -0.008899
v 0.094026 -0.003156 -0.010462
v 0.093616 0.000219 -0.011000
v 0.093206 0.003593 -0.010462
v 0.092837 0.006637 -0.008899
v 0.092543 0.009053 -0.006466
v 0.092355 0.010604 -0.003399
v 0.092290 0.011139 -0.000000
v 0.092355 0.010604 0.003399
v 0.092543 0.009053 0.006466
v 0.092837 0.006637 0.008899
v 0.093206 0.003593 0.010462
v 0.093616 0.000219 0.011000
v 0.094026 -0.003156 0.010462
v 0.094395 -0.006200 0.008899
v 0.094689 -0.008616 0.006466
v 0.094877 -0.010167 0.003399
v 0.094942 -0.010701 0.000000
v 0.099812 -0.009809 0.000000
v 0.099683 -0.009286 -0.003399
v 0.099309 -0.007769 -0.006466
v 0.098727 -0.005406 -0.008899
v 0.097993 -0.002429 -0.010462
v 0.097179 0.000872 -0.011000
v 0.096366 0.004172 -0.010462
v 0.095632 0.007150 -0.008899
v 0.095050 0.009512 -0.006466
v 0.094676 0.011029 -0.003399
v 0.094547 0.011552 -0.000000
v 0.094676 0.011029 0.003399
v 0.095050 0.009512 0.006466
v 0.095632 0.007150 0.008899
v 0.096366 0.004172 0.010462
v 0.097179 0.000872 0.011000
v 0.097993 -0.002429 0.010462
v 0.098727 -0.005406 0.008899
v 0.099309 -0.007769 0.006466
v 0.099683 -0.009286 0.003399
v 0.099812 -0.009809 0.000000
v 0.104539 -0.008336 0.000000
v 0.104348 -0.007832 -0.003399
v 0.103794 -0.006371 -0.006466
v 0.102931 -0.004096 -0.008899
v 0.101844 -0.001229 -0.010462
v 0.100638 0.001950 -0.011000
v 0.099433 0.005128 -0.010462
v 0.098345 0.007995 -0.008899
v 0.097482 0.010270 -0.006466
v 0.096928 0.011731 -0.003399
v 0.096737 0.012235 -0.000000
v 0.096928 0.011731 0.003399
v 0.097482 0.010270 0.006466
v 0.098345 0.007995 0.008899
v 0.099433 0.005128 0.010462
v 0.100638 0.001950 0.011000
v 0.101844 -0.001229 0.010462
v 0.102931 -0.004096 0.008899
v 0.103794 -0.006371 0.006466
v 0.104348 -0.007832 0.003399
v 0.104539 -0.008336 0.000000
v 0.109054 -0.006304 0.000000
v 0.108803 -0.005827 -0.003399
v 0.108077 -0.004444 -0.006466
v 0.106946 -0.002289 -0.008899
v 0.105521 0.000426 -0.010462
v 0.103942 0.003436 -0.011000
v 0.102362 0.006446 -0.010462
v 0.100937 0.009161 -0.008899
v 0.099806 0.011316 -0.006466
v 0.099080 0.012700 -0.003399
v 0.098830 0.013176 -0.000000
v 0.099080 0.012700 0.003399
v 0.099806 0.011316 0.006466
v 0.100937 0.009161 0.008899
v 0.102362 0.006446 0.010462
v 0.103942 0.003436 0.011000
v 0.105521 0.000426 0.010462
v 0.106946 -0.002289 0.008899
v 0.108077 -0.004444 0.006466
v 0.108803 -0.005827 0.003399
v 0.109054 -0.006304 0.000000
v 0.113291 -0.003742 0.000000
v 0.112985 -0.003299 -0.003399
v 0.112097 -0.002013 -0.006466
v 0.110715 -0.000011 -0.008899
v 0.108973 0.002513 -0.010462
v 0.107042 0.005310 -0.011000
v 0.105111 0.008108 -0.010462
v 0.103369 0.010632 -0.008899
v 0.101987 0.012634 -0.006466
v 0.101099 0.013920 -0.003399
v 0.100793 0.014363 -0.000000
v 0.101099 0.013920 0.003399
v 0.101987 0.012634 0.006466
v 0.103369 0.010632 0.008899
v 0.105111 0.008108 0.010462
v 0.107042 0.005310 0.011000
v 0.108973 0.002513 0.010462
v 0.110715 -0.000011 0.008899
v 0.112097 -0.002013 0.006466
v 0.112985 -0.003299 0.003399
v 0.113291 -0.003742 0.000000
v 0.117188 -0.000689 0.000000
v 0.116831 -0.000286 -0.003399
v 0.115795 0.000884 -0.006466
v 0.114181 0.002705 -0.008899
v 0.112148 0.005000 -0.010462
v 0.109894 0.007545 -0.011000
v 0.107640 0.010089 -0.010462
v 0.105606 0.012384 -0.008899
v 0.103992 0.014206 -0.006466
v 0.102956 0.015375 -0.003399
v 0.102599 0.015778 -0.000000
v 0.102956 0.015375 0.003399
v 0.103992 0.014206 0.006466
v 0.105606 0.012384 0.008899
v 0.107640 0.010089 0.010462
v 0.109894 0.007545 0.011000
v 0.112148 0.005000 0.010462
v 0.114181 0.002705 0.008899
v 0.115795 0.000884 0.006466
v 0.116831 -0.000286 0.003399
v 0.117188 -0.000689 0.000000
v 0.120689 0.002812 0.000000
v 0.120286 0.003169 -0.003399
v 0.119116 0.004205 -0.006466
v 0.117295 0.005819 -0.008899
v 0.115000 0.007852 -0.010462
v 0.112455 0.010106 -0.011000
v 0.109911 0.012360 -0.010462
v 0.107616 0.014394 -0.008899
v 0.105794 0.016008 -0.006466
v 0.104625 0.017044 -0.003399
v 0.104222 0.017401 -0.000000
v 0.104625 0.017044 0.003399
v 0.105794 0.016008 0.006466
v 0.107616 0.014394 0.008899
v 0.109911 0.012360 0.010462
v 0.112455 0.010106 0.011000
v 0.115000 0.007852 0.010462
v 0.117295 0.005819 0.008899
v 0.119116 0.004205 0.006466
v 0.120286 0.003169 0.003399
v 0.120689 0.002812 0.000000
v 0.123742 0.006709 0.000000
v 0.123299 0.007015 -0.003399
v 0.122013 0.007903 -0.006466
v 0.120011 0.009285 -0.008899
v 0.117487 0.011027 -0.010462
v 0.114690 0.012958 -0.011000
v 0.111892 0.014889 -0.010462
v 0.109368 0.016631 -0.008899
v 0.107366 0.018013 -0.006466
v 0.106080 0.018901 -0.003399
v 0.105637 0.019207 -0.000000
v 0.106080 0.018901 0.003399
v 0.107366 0.018013 0.006466
v 0.109368 0.016631 0.008899
v 0.111892 0.014889 0.010462
v 0.114690 0.012958 0.011000
v 0.117487 0.011027 0.010462
v 0.120011 0.009285 0.008899
v 0.122013 0.007903 0.006466
v 0.123299 0.007015 0.003399
v 0.123742 0.006709 0.000000
v 0.126304 0.010946 0.000000
v 0.125827 0.011197 -0.003399
v 0.124444 0.011923 -0.006466
v 0.122289 0.013054 -0.008899
v 0.119574 0.014479 -0.010462
v 0.116564 0.016058 -0.011000
v 0.113554 0.017638 -0.010462
v 0.110839 0.019063 -0.008899
v 0.108684 0.020194 -0.006466
v 0.107300 0.020920 -0.003399
v 0.106824 0.021170 -0.000000
v 0.107300 0.020920 0.003399
v 0.108684 0.020194 0.006466
v 0.110839 0.019063 0.008899
v 0.113554 0.017638 0.010462
v 0.116564 0.016058 0.011000
v 0.119574 0.014479 0.010462
v 0.122289 0.013054 0.008899
v 0.124444 0.011923 0.006466
v 0.125827 0.011197 0.003399
v 0.126304 0.010946 0.000000
v 0.128336 0.015461 0.000000
v 0.127832 0.015652 -0.003399
v 0.126371 0.016206 -0.006466
v 0.124096 0.017069 -0.008899
v 0.121229 0.018156 -0.010462
v 0.118050 0.019362 -0.011000
v 0.114872 0.020567 -0.010462
v 0.112005 0.021655 -0.008899
v 0.109730 0.022518 -0.006466
v 0.108269 0.023072 -0.003399
v 0.107765 0.023263 -0.000000
v 0.108269 0.023072 0.003399
v 0.109730 0.022518 0.006466
v 0.112005 0.021655 0.008899
v 0.114872 0.020567 0.010462
v 0.118050 0.019362 0.011000
v 0.121229 0.018156 0.010462
v 0.124096 0.017069 0.008899
v 0.126371 0.016206 0.006466
v 0.127832 0.015652 0.003399
v 0.128336 0.015461 0.000000
v 0.129809 0.020188 0.000000
v 0.129286 0.020317 -0.003399
v 0.127769 0.020691 -0.006466
v 0.125406 0.021273 -0.008899
v 0.122429 0.022007 -0.010462
v 0.119128 0.022821 -0.011000
v 0.115828 0.023634 -0.010462
v 0.112850 0.024368 -0.008899
v 0.110488 0.024950 -0.006466
v 0.108971 0.025324 -0.003399
v 0.108448 0.025453 -0.000000
v 0.108971 0.025324 0.003399
v 0.110488 0.024950 0.006466
v 0.112850 0.024368 0.008899
v 0.115828 0.023634 0.010462
v 0.119128 0.022821 0.011000
v 0.122429 0.022007 0.010462
v 0.125406 0.021273 0.008899
v 0.127769 0.020691 0.006466
v 0.129286 0.020317 0.003399
v 0.129809 0.020188 0.000000
v 0.130701 0.025058 0.000000
v 0.130167 0.025123 -0.003399
v 0.128616 0.025311 -0.006466
v 0.126200 0.025605 -0.008899
v 0.123156 0.025974 -0.010462
v 0.119781 0.026384 -0.011000
v 0.116407 0.026794 -0.010462
v 0.113363 0.027163 -0.008899
v 0.110947 0.027457 -0.006466
v 0.109396 0.027645 -0.003399
v 0.108861 0.027710 -0.000000
v 0.109396 0.027645 0.003399
v 0.110947 0.027457 0.006466
v 0.113363 0.027163 0.008899
v 0.116407 0.026794 0.010462
v 0.119781 0.026384 0.011000
v 0.123156 0.025974 0.010462
v 0.126200 0.025605 0.008899
v 0.128616 0.025311 0.006466
v 0.130167 0.025123 0.003399
v 0.130701 0.025058 0.000000
v 0.130992 0.029572 0.000000
v 0.130454 0.029593 -0.003399
v 0.128892 0.029654 -0.006466
v 0.126461 0.029748 -0.008899
v 0.123397 0.029868 -0.010462
v 0.120000 0.030000 -0.011000
v 0.116603 0.030132 -0.010462
v 0.113539 0.030252 -0.008899
v 0.111108 0.030346 -0.006466
v 0.109546 0.030407 -0.003399
v 0.109008 0.030428 -0.000000
v 0.109546 0.030407 0.003399
v 0.111108 0.030346 0.006466
v 0.113539 0.030252 0.008899
v 0.116603 0.030132 0.010462
v 0.120000 0.030000 0.011000
v 0.123397 0.029868 0.010462
v 0.126461 0.029748 0.008899
v 0.128892 0.029654 0.006466
v 0.130454 0.029593 0.003399
v 0.130992 0.029572 0.000000
v 0.131000 0.032000 0.000000
v 0.130462 0.032000 -0.003399
v 0.128899 0.032000 -0.006466
v 0.126466 0.032000 -0.008899
v 0.123399 0.032000 -0.010462
v 0.120000 0.032000 -0.011000
v 0.116601 0.032000 -0.010462
v 0.113534 0.032000 -0.008899
v 0.111101 0.032000 -0.006466
v 0.109538 0.032000 -0.003399
v 0.109000 0.032000 -0.000000
v 0.109538 0.032000 0.003399
v 0.111101 0.032000 0.006466
v 0.113534 0.032000 0.008899
v 0.116601 0.032000 0.010462
v 0.120000 0.032000 0.011000
v 0.123399 0.032000 0.010462
v 0.126466 0.032000 0.008899
v 0.128899 0.032000 0.006466
v 0.130462 0.032000 0.003399
v 0.131000 0.032000 0.000000
v 0.131000 0.039600 0.000000
v 0.130462 0.039600 -0.003399
v 0.128899 0.039600 -0.006466
v 0.126466 0.039600 -0.008899
v 0.123399 0.039600 -0.010462
v 0.120000 0.039600 -0.011000
v 0.116601 0.039600 -0.010462
v 0.113534 0.039600 -0.008899
v 0.111101 0.039600 -0.006466
v 0.109538 0.039600 -0.003399
v 0.109000 0.039600 -0.000000
v 0.109538 0.039600 0.003399
v 0.111101 0.039600 0.006466
v 0.113534 0.039600 0.008899
v 0.116601 0.039600 0.010462
v 0.120000 0.039600 0.011000
v 0.123399 0.039600 0.010462
v 0.126466 0.039600 0.008899
v 0.128899 0.039600 0.006466
v 0.130462 0.039600 0.003399
v 0.131000 0.039600 0.000000
v 0.131000 0.047200 0.000000
v 0.130462 0.047200 -0.003399
v 0.128899 0.047200 -0.006466
v 0.126466 0.047200 -0.008899
v 0.123399 0.047200 -0.010462
v 0.120000 0.047200 -0.011000
v 0.116601 0.047200 -0.010462
v 0.113534 0.047200 -0.008899
v 0.111101 0.047200 -0.006466
v 0.109538 0.047200 -0.003399
v 0.109000 0.047200 -0.000000
v 0.109538 0.047200 0.003399
v 0.111101 0.047200 0.006466
v 0.113534 0.047200 0.008899
v 0.116601 0.047200 0.010462
v 0.120000 0.047200 0.011000
v 0.123399 0.047200 0.010462
v 0.126466 0.047200 0.008899
v 0.128899 0.047200 0.006466
v 0.130462 0.047200 0.003399
v 0.131000 0.047200 0.000000
v 0.131000 0.054800 0.000000
v 0.130462 0.054800 -0.003399
v 0.128899 0.054800 -0.006466
v 0.126466 0.054800 -0.008899
v 0.123399 0.054800 -0.010462
v 0.120000 0.054800 -0.011000
v 0.116601 0.054800 -0.010462
v 0.113534 0.054800 -0.008899
v 0.111101 0.054800 -0.006466
v 0.109538 0.054800 -0.003399
v 0.109000 0.054800 -0.000000
v 0.109538 0.054800 0.003399
v 0.111101 0.054800 0.006466
v 0.113534 0.054800 0.008899
v 0.116601 0.054800 0.010462
v 0.120000 0.054800 0.011000
v 0.123399 0.054800 0.010462
v 0.126466 0.054800 0.008899
v 0.128899 0.054800 0.006466
v 0.130462 0.054800 0.003399
v 0.131000 0.054800 0.000000
v 0.127000 0.062400 0.000000
v 0.126657 0.062400 -0.002163
v 0.125663 0.062400 -0.004114
v 0.124114 0.062400 -0.005663
v 0.122163 0.062400 -0.006657
v 0.120000 0.062400 -0.007000
v 0.117837 0.062400 -0.006657
v 0.115886 0.062400 -0.005663
v 0.114337 0.062400 -0.004114
v 0.113343 0.062400 -0.002163
v 0.113000 0.062400 -0.000000
v 0.113343 0.062400 0.002163
v 0.114337 0.062400 0.004114
v 0.115886 0.062400 0.005663
v 0.117837 0.062400 0.006657
v 0.120000 0.062400 0.007000
v 0.122163 0.062400 0.006657
v 0.124114 0.062400 0.005663
v 0.125663 0.062400 0.004114
v 0.126657 0.062400 0.002163
v 0.127000 0.062400 0.000000
v 0.122000 0.070000 0.000000
v 0.121902 0.070000 -0.000618
v 0.121618 0.070000 -0.001176
v 0.121176 0.070000 -0.001618
v 0.120618 0.070000 -0.001902
v 0.120000 0.070000 -0.002000
v 0.119382 0.070000 -0.001902
v 0.118824 0.070000 -0.001618
v 0.118382 0.070000 -0.001176
v 0.118098 0.070000 -0.000618
v 0.118000 0.070000 -0.000000
v 0.118098 0.070000 0.000618
v 0.118382 0.070000 0.001176
v 0.118824 0.070000 0.001618
v 0.119382 0.070000 0.001902
v 0.120000 0.070000 0.002000
v 0.120618 0.070000 0.001902
v 0.121176 0.070000 0.001618
v 0.121618 0.070000 0.001176
v 0.121902 0.070000 0.000618
v 0.122000 0.070000 0.000000
vt 0.500000 0.500000
vt 0.500000 0.500000
vt 0.500000 0.500000
vt 0.500000 0.500000
vt 0.500000 0.500000
vt 0.500000 0.500000
vt 0.500000 0.500000
vt 0.500000 0.500000
vt 0.500000 0.500000
vt 0.500000 0.500000
vt 0.500000 0.500000
vt 0.500000 0.500000
vt 0.500000 0.500000
vt 0.500000 0.500000
vt 0.500000 0.500000
vt 0.500000 0.500000
vt 0.500000 0.500000
vt 0.500000 0.500000
vt 0.500000 0.500000
vt 0.500000 0.500000
vt 0.500000 0.500000
vt 0.500000 0.500000
vt 0.500000 0.500000
vt 0.500000 0.500000
vt 0.500000 0.500000
vt 0.500000 0.500000
vt 0.500000 0.500000
vt 0.500000 0.500000
vt 0.500000 0.500000
vt 0.500000 0.500000
vt 0.500000 0.500000
vt 0.500000 0.500000
vt 0.500000 0.500000
vt 0.867965 0.500000
vt 0.860895 0.571786
vt 0.839956 0.640814
vt 0.805952 0.704431
vt 0.760191 0.760191
vt 0.704431 0.805952
vt 0.640814 0.839956
vt 0.571786 0.860895
vt 0.500000 0.867965
vt 0.428214 0.860895
vt 0.359186 0.839956
vt 0.295569 0.805952
vt 0.239809 0.760191
vt 0.194048 0.704431
vt 0.160044 0.640814
vt 0.139105 0.571786
vt 0.132035 0.500000
vt 0.139105 0.428214
vt 0.160044 0.359186
vt 0.194048 0.295569
vt 0.239809 0.239809
vt 0.295569 0.194048
vt 0.359186 0.160044
vt 0.428214 0.139105
vt 0.500000 0.132035
vt 0.571786 0.139105
vt 0.640814 0.160044
vt 0.704431 0.194048
vt 0.760191 0.239809
vt 0.805952 0.295569
vt 0.839956 0.359186
vt 0.860895 0.428214
vt 0.867965 0.500000
vt 0.000000 0.182749
vt 0.031250 0.182749
vt 0.062500 0.182749
vt 0.093750 0.182749
vt 0.125000 0.182749
vt 0.156250 0.182749
vt 0.187500 0.182749
vt 0.218750 0.182749
vt 0.250000 0.182749
vt 0.281250 0.182749
vt 0.312500 0.182749
vt 0.343750 0.182749
vt 0.375000 0.182749
vt 0.406250 0.182749
vt 0.437500 0.182749
vt 0.468750 0.182749
vt 0.500000 0.182749
vt 0.531250 0.182749
vt 0.562500 0.182749
vt 0.593750 0.182749
vt 0.625000 0.182749
vt 0.656250 0.182749
vt 0.687500 0.182749
vt 0.718750 0.182749
vt 0.750000 0.182749
vt 0.781250 0.182749
vt 0.812500 0.182749
vt 0.843750 0.182749
vt 0.875000 0.182749
vt 0.906250 0.182749
vt 0.937500 0.182749
vt 0.968750 0.182749
vt 1.000000 0.182749
vt 0.000000 0.258763
vt 0.031250 0.258763
vt 0.062500 0.258763
vt 0.093750 0.258763
vt 0.125000 0.258763
vt 0.156250 0.258763
vt 0.187500 0.258763
vt 0.218750 0.258763
vt 0.250000 0.258763
vt 0.281250 0.258763
vt 0.312500 0.258763
vt 0.343750 0.258763
vt 0.375000 0.258763
vt 0.406250 0.258763
vt 0.437500 0.258763
vt 0.468750 0.258763
vt 0.500000 0.258763
vt 0.531250 0.258763
vt 0.562500 0.258763
vt 0.593750 0.258763
vt 0.625000 0.258763
vt 0.656250 0.258763
vt 0.687500 0.258763
vt 0.718750 0.258763
vt 0.750000 0.258763
vt 0.781250 0.258763
vt 0.812500 0.258763
vt 0.843750 0.258763
vt 0.875000 0.258763
vt 0.906250 0.258763
vt 0.937500 0.258763
vt 0.968750 0.258763
vt 1.000000 0.258763
vt 0.000000 0.258763
vt 0.031250 0.258763
vt 0.062500 0.258763
vt 0.093750 0.258763
vt 0.125000 0.258763
vt 0.156250 0.258763
vt 0.187500 0.258763
vt 0.218750 0.258763
vt 0.250000 0.258763
vt 0.281250 0.258763
vt 0.312500 0.258763
vt 0.343750 0.258763
vt 0.375000 0.258763
vt 0.406250 0.258763
vt 0.437500 0.258763
vt 0.468750 0.258763
vt 0.500000 0.258763
vt 0.531250 0.258763
vt 0.562500 0.258763
vt 0.593750 0.258763
vt 0.625000 0.258763
vt 0.656250 0.258763
vt 0.687500 0.258763
vt 0.718750 0.258763
vt 0.750000 0.258763
vt 0.781250 0.258763
vt 0.812500 0.258763
vt 0.843750 0.258763
vt 0.875000 0.258763
vt 0.906250 0.258763
vt 0.937500 0.258763
vt 0.968750 0.258763
vt 1.000000 0.258763
vt 0.000000 5.741237
vt 0.031250 5.741237
vt 0.062500 5.741237
vt 0.093750 5.741237
vt 0.125000 5.741237
vt 0.156250 5.741237
vt 0.187500 5.741237
vt 0.218750 5.741237
vt 0.250000 5.741237
vt 0.281250 5.741237
vt 0.312500 5.741237
vt 0.343750 5.741237
vt 0.375000 5.741237
vt 0.406250 5.741237
vt 0.437500 5.741237
vt 0.468750 5.741237
vt 0.500000 5.741237
vt 0.531250 5.741237
vt 0.562500 5.741237
vt 0.593750 5.741237
vt 0.625000 5.741237
vt 0.656250 5.741237
vt 0.687500 5.741237
vt 0.718750 5.741237
vt 0.750000 5.741237
vt 0.781250 5.741237
vt 0.812500 5.741237
vt 0.843750 5.741237
vt 0.875000 5.741237
vt 0.906250 5.741237
vt 0.937500 5.741237
vt 0.968750 5.741237
vt 1.000000 5.741237
vt 0.000000 5.741237
vt 0.031250 5.741237
vt 0.062500 5.741237
vt 0.093750 5.741237
vt 0.125000 5.741237
vt 0.156250 5.741237
vt 0.187500 5.741237
vt 0.218750 5.741237
vt 0.250000 5.741237
vt 0.281250 5.741237
vt 0.312500 5.741237
vt 0.343750 5.741237
vt 0.375000 5.741237
vt 0.406250 5.741237
vt 0.437500 5.741237
vt 0.468750 5.741237
vt 0.500000 5.741237
vt 0.531250 5.741237
vt 0.562500 5.741237
vt 0.593750 5.741237
vt 0.625000 5.741237
vt 0.656250 5.741237
vt 0.687500 5.741237
vt 0.718750 5.741237
vt 0.750000 5.741237
vt 0.781250 5.741237
vt 0.812500 5.741237
vt 0.843750 5.741237
vt 0.875000 5.741237
vt 0.906250 5.741237
vt 0.937500 5.741237
vt 0.968750 5.741237
vt 1.000000 5.741237
vt 0.000000 5.817251
vt 0.031250 5.817251
vt 0.062500 5.817251
vt 0.093750 5.817251
vt 0.125000 5.817251
vt 0.156250 5.817251
vt 0.187500 5.817251
vt 0.218750 5.817251
vt 0.250000 5.817251
vt 0.281250 5.817251
vt 0.312500 5.817251
vt 0.343750 5.817251
vt 0.375000 5.817251
vt 0.406250 5.817251
vt 0.437500 5.817251
vt 0.468750 5.817251
vt 0.500000 5.817251
vt 0.531250 5.817251
vt 0.562500 5.817251
vt 0.593750 5.817251
vt 0.625000 5.817251
vt 0.656250 5.817251
vt 0.687500 5.817251
vt 0.718750 5.817251
vt 0.750000 5.817251
vt 0.781250 5.817251
vt 0.812500 5.817251
vt 0.843750 5.817251
vt 0.875000 5.817251
vt 0.906250 5.817251
vt 0.937500 5.817251
vt 0.968750 5.817251
vt 1.000000 5.817251
vt 0.867965 0.500000
vt 0.860895 0.571786
vt 0.839956 0.640814
vt 0.805952 0.704431
vt 0.760191 0.760191
vt 0.704431 0.805952
vt 0.640814 0.839956
vt 0.571786 0.860895
vt 0.500000 0.867965
vt 0.428214 0.860895
vt 0.359186 0.839956
vt 0.295569 0.805952
vt 0.239809 0.760191
vt 0.194048 0.704431
vt 0.160044 0.640814
vt 0.139105 0.571786
vt 0.132035 0.500000
vt 0.139105 0.428214
vt 0.160044 0.359186
vt 0.194048 0.295569
vt 0.239809 0.239809
vt 0.295569 0.194048
vt 0.359186 0.160044
vt 0.428214 0.139105
vt 0.500000 0.132035
vt 0.571786 0.139105
vt 0.640814 0.160044
vt 0.704431 0.194048
vt 0.760191 0.239809
vt 0.805952 0.295569
vt 0.839956 0.359186
vt 0.860895 0.428214
vt 0.867965 0.500000
vt 0.500000 0.500000
vt 0.500000 0.500000
vt 0.500000 0.500000
vt 0.500000 0.500000
vt 0.500000 0.500000
vt 0.500000 0.500000
vt 0.500000 0.500000
vt 0.500000 0.500000
vt 0.500000 0.500000
vt 0.500000 0.500000
vt 0.500000 0.500000
vt 0.500000 0.500000
vt 0.500000 0.500000
vt 0.500000 0.500000
vt 0.500000 0.500000
vt 0.500000 0.500000
vt 0.500000 0.500000
vt 0.500000 0.500000
vt 0.500000 0.500000
vt 0.500000 0.500000
vt 0.500000 0.500000
vt 0.500000 0.500000
vt 0.500000 0.500000
vt 0.500000 0.500000
vt 0.500000 0.500000
vt 0.500000 0.500000
vt 0.500000 0.500000
vt 0.500000 0.500000
vt 0.500000 0.500000
vt 0.500000 0.500000
vt 0.500000 0.500000
vt 0.500000 0.500000
vt 0.500000 0.500000
vt 0.000000 0.000000
vt 0.050000 0.000000
vt 0.100000 0.000000
vt 0.150000 0.000000
vt 0.200000 0.000000
vt 0.250000 0.000000
vt 0.300000 0.000000
vt 0.350000 0.000000
vt 0.400000 0.000000
vt 0.450000 0.000000
vt 0.500000 0.000000
vt 0.550000 0.000000
vt 0.600000 0.000000
vt 0.650000 0.000000
vt 0.700000 0.000000
vt 0.750000 0.000000
vt 0.800000 0.000000
vt 0.850000 0.000000
vt 0.900000 0.000000
vt 0.950000 0.000000
vt 1.000000 0.000000
vt 0.000000 0.065209
vt 0.050000 0.065209
vt 0.100000 0.065209
vt 0.150000 0.065209
vt 0.200000 0.065209
vt 0.250000 0.065209
vt 0.300000 0.065209
vt 0.350000 0.065209
vt 0.400000 0.065209
vt 0.450000 0.065209
vt 0.500000 0.065209
vt 0.550000 0.065209
vt 0.600000 0.065209
vt 0.650000 0.065209
vt 0.700000 0.065209
vt 0.750000 0.065209
vt 0.800000 0.065209
vt 0.850000 0.065209
vt 0.900000 0.065209
vt 0.950000 0.065209
vt 1.000000 0.065209
vt 0.000000 0.130418
vt 0.050000 0.130418
vt 0.100000 0.130418
vt 0.150000 0.130418
vt 0.200000 0.130418
vt 0.250000 0.130418
vt 0.300000 0.130418
vt 0.350000 0.130418
vt 0.400000 0.130418
vt 0.450000 0.130418
vt 0.500000 0.130418
vt 0.550000 0.130418
vt 0.600000 0.130418
vt 0.650000 0.130418
vt 0.700000 0.130418
vt 0.750000 0.130418
vt 0.800000 0.130418
vt 0.850000 0.130418
vt 0.900000 0.130418
vt 0.950000 0.130418
vt 1.000000 0.130418
vt 0.000000 0.195626
vt 0.050000 0.195626
vt 0.100000 0.195626
vt 0.150000 0.195626
vt 0.200000 0.195626
vt 0.250000 0.195626
vt 0.300000 0.195626
vt 0.350000 0.195626
vt 0.400000 0.195626
vt 0.450000 0.195626
vt 0.500000 0.195626
vt 0.550000 0.195626
vt 0.600000 0.195626
vt 0.650000 0.195626
vt 0.700000 0.195626
vt 0.750000 0.195626
vt 0.800000 0.195626
vt 0.850000 0.195626
vt 0.900000 0.195626
vt 0.950000 0.195626
vt 1.000000 0.195626
vt 0.000000 0.260835
vt 0.050000 0.260835
vt 0.100000 0.260835
vt 0.150000 0.260835
vt 0.200000 0.260835
vt 0.250000 0.260835
vt 0.300000 0.260835
vt 0.350000 0.260835
vt 0.400000 0.260835
vt 0.450000 0.260835
vt 0.500000 0.260835
vt 0.550000 0.260835
vt 0.600000 0.260835
vt 0.650000 0.260835
vt 0.700000 0.260835
vt 0.750000 0.260835
vt 0.800000 0.260835
vt 0.850000 0.260835
vt 0.900000 0.260835
vt 0.950000 0.260835
vt 1.000000 0.260835
vt 0.000000 0.326044
vt 0.050000 0.326044
vt 0.100000 0.326044
vt 0.150000 0.326044
vt 0.200000 0.326044
vt 0.250000 0.326044
vt 0.300000 0.326044
vt 0.350000 0.326044
vt 0.400000 0.326044
vt 0.450000 0.326044
vt 0.500000 0.326044
vt 0.550000 0.326044
vt 0.600000 0.326044
vt 0.650000 0.326044
vt 0.700000 0.326044
vt 0.750000 0.326044
vt 0.800000 0.326044
vt 0.850000 0.326044
vt 0.900000 0.326044
vt 0.950000 0.326044
vt 1.000000 0.326044
vt 0.000000 0.391253
vt 0.050000 0.391253
vt 0.100000 0.391253
vt 0.150000 0.391253
vt 0.200000 0.391253
vt 0.250000 0.391253
vt 0.300000 0.391253
vt 0.350000 0.391253
vt 0.400000 0.391253
vt 0.450000 0.391253
vt 0.500000 0.391253
vt 0.550000 0.391253
vt 0.600000 0.391253
vt 0.650000 0.391253
vt 0.700000 0.391253
vt 0.750000 0.391253
vt 0.800000 0.391253
vt 0.850000 0.391253
vt 0.900000 0.391253
vt 0.950000 0.391253
vt 1.000000 0.391253
vt 0.000000 0.456461
vt 0.050000 0.456461
vt 0.100000 0.456461
vt 0.150000 0.456461
vt 0.200000 0.456461
vt 0.250000 0.456461
vt 0.300000 0.456461
vt 0.350000 0.456461
vt 0.400000 0.456461
vt 0.450000 0.456461
vt 0.500000 0.456461
vt 0.550000 0.456461
vt 0.600000 0.456461
vt 0.650000 0.456461
vt 0.700000 0.456461
vt 0.750000 0.456461
vt 0.800000 0.456461
vt 0.850000 0.456461
vt 0.900000 0.456461
vt 0.950000 0.456461
vt 1.000000 0.456461
vt 0.000000 0.521670
vt 0.050000 0.521670
vt 0.100000 0.521670
vt 0.150000 0.521670
vt 0.200000 0.521670
vt 0.250000 0.521670
vt 0.300000 0.521670
vt 0.350000 0.521670
vt 0.400000 0.521670
vt 0.450000 0.521670
vt 0.500000 0.521670
vt 0.550000 0.521670
vt 0.600000 0.521670
vt 0.650000 0.521670
vt 0.700000 0.521670
vt 0.750000 0.521670
vt 0.800000 0.521670
vt 0.850000 0.521670
vt 0.900000 0.521670
vt 0.950000 0.521670
vt 1.000000 0.521670
vt 0.000000 0.586879
vt 0.050000 0.586879
vt 0.100000 0.586879
vt 0.150000 0.586879
vt 0.200000 0.586879
vt 0.250000 0.586879
vt 0.300000 0.586879
vt 0.350000 0.586879
vt 0.400000 0.586879
vt 0.450000 0.586879
vt 0.500000 0.586879
vt 0.550000 0.586879
vt 0.600000 0.586879
vt 0.650000 0.586879
vt 0.700000 0.586879
vt 0.750000 0.586879
vt 0.800000 0.586879
vt 0.850000 0.586879
vt 0.900000 0.586879
vt 0.950000 0.586879
vt 1.000000 0.586879
vt 0.000000 0.652088
vt 0.050000 0.652088
vt 0.100000 0.652088
vt 0.150000 0.652088
vt 0.200000 0.652088
vt 0.250000 0.652088
vt 0.300000 0.652088
vt 0.350000 0.652088
vt 0.400000 0.652088
vt 0.450000 0.652088
vt 0.500000 0.652088
vt 0.550000 0.652088
vt 0.600000 0.652088
vt 0.650000 0.652088
vt 0.700000 0.652088
vt 0.750000 0.652088
vt 0.800000 0.652088
vt 0.850000 0.652088
vt 0.900000 0.652088
vt 0.950000 0.652088
vt 1.000000 0.652088
vt 0.000000 0.717297
vt 0.050000 0.717297
vt 0.100000 0.717297
vt 0.150000 0.717297
vt 0.200000 0.717297
vt 0.250000 0.717297
vt 0.300000 0.717297
vt 0.350000 0.717297
vt 0.400000 0.717297
vt 0.450000 0.717297
vt 0.500000 0.717297
vt 0.550000 0.717297
vt 0.600000 0.717297
vt 0.650000 0.717297
vt 0.700000 0.717297
vt 0.750000 0.717297
vt 0.800000 0.717297
vt 0.850000 0.717297
vt 0.900000 0.717297
vt 0.950000 0.717297
vt 1.000000 0.717297
vt 0.000000 0.782505
vt 0.050000 0.782505
vt 0.100000 0.782505
vt 0.150000 0.782505
vt 0.200000 0.782505
vt 0.250000 0.782505
vt 0.300000 0.782505
vt 0.350000 0.782505
vt 0.400000 0.782505
vt 0.450000 0.782505
vt 0.500000 0.782505
vt 0.550000 0.782505
vt 0.600000 0.782505
vt 0.650000 0.782505
vt 0.700000 0.782505
vt 0.750000 0.782505
vt 0.800000 0.782505
vt 0.850000 0.782505
vt 0.900000 0.782505
vt 0.950000 0.782505
vt 1.000000 0.782505
vt 0.000000 0.847714
vt 0.050000 0.847714
vt 0.100000 0.847714
vt 0.150000 0.847714
vt 0.200000 0.847714
vt 0.250000 0.847714
vt 0.300000 0.847714
vt 0.350000 0.847714
vt 0.400000 0.847714
vt 0.450000 0.847714
vt 0.500000 0.847714
vt 0.550000 0.847714
vt 0.600000 0.847714
vt 0.650000 0.847714
vt 0.700000 0.847714
vt 0.750000 0.847714
vt 0.800000 0.847714
vt 0.850000 0.847714
vt 0.900000 0.847714
vt 0.950000 0.847714
vt 1.000000 0.847714
vt 0.000000 0.883714
vt 0.050000 0.883714
vt 0.100000 0.883714
vt 0.150000 0.883714
vt 0.200000 0.883714
vt 0.250000 0.883714
vt 0.300000 0.883714
vt 0.350000 0.883714
vt 0.400000 0.883714
vt 0.450000 0.883714
vt 0.500000 0.883714
vt 0.550000 0.883714
vt 0.600000 0.883714
vt 0.650000 0.883714
vt 0.700000 0.883714
vt 0.750000 0.883714
vt 0.800000 0.883714
vt 0.850000 0.883714
vt 0.900000 0.883714
vt 0.950000 0.883714
vt 1.000000 0.883714
vt 0.000000 1.020514
vt 0.050000 1.020514
vt 0.100000 1.020514
vt 0.150000 1.020514
vt 0.200000 1.020514
vt 0.250000 1.020514
vt 0.300000 1.020514
vt 0.350000 1.020514
vt 0.400000 1.020514
vt 0.450000 1.020514
vt 0.500000 1.020514
vt 0.550000 1.020514
vt 0.600000 1.020514
vt 0.650000 1.020514
vt 0.700000 1.020514
vt 0.750000 1.020514
vt 0.800000 1.020514
vt 0.850000 1.020514
vt 0.900000 1.020514
vt 0.950000 1.020514
vt 1.000000 1.020514
vt 0.000000 1.157314
vt 0.050000 1.157314
vt 0.100000 1.157314
vt 0.150000 1.157314
vt 0.200000 1.157314
vt 0.250000 1.157314
vt 0.300000 1.157314
vt 0.350000 1.157314
vt 0.400000 1.157314
vt 0.450000 1.157314
vt 0.500000 1.157314
vt 0.550000 1.157314
vt 0.600000 1.157314
vt 0.650000 1.157314
vt 0.700000 1.157314
vt 0.750000 1.157314
vt 0.800000 1.157314
vt 0.850000 1.157314
vt 0.900000 1.157314
vt 0.950000 1.157314
vt 1.000000 1.157314
vt 0.000000 1.294114
vt 0.050000 1.294114
vt 0.100000 1.294114
vt 0.150000 1.294114
vt 0.200000 1.294114
vt 0.250000 1.294114
vt 0.300000 1.294114
vt 0.350000 1.294114
vt 0.400000 1.294114
vt 0.450000 1.294114
vt 0.500000 1.294114
vt 0.550000 1.294114
vt 0.600000 1.294114
vt 0.650000 1.294114
vt 0.700000 1.294114
vt 0.750000 1.294114
vt 0.800000 1.294114
vt 0.850000 1.294114
vt 0.900000 1.294114
vt 0.950000 1.294114
vt 1.000000 1.294114
vt 0.000000 1.430914
vt 0.050000 1.430914
vt 0.100000 1.430914
vt 0.150000 1.430914
vt 0.200000 1.430914
vt 0.250000 1.430914
vt 0.300000 1.430914
vt 0.350000 1.430914
vt 0.400000 1.430914
vt 0.450000 1.430914
vt 0.500000 1.430914
vt 0.550000 1.430914
vt 0.600000 1.430914
vt 0.650000 1.430914
vt 0.700000 1.430914
vt 0.750000 1.430914
vt 0.800000 1.430914
vt 0.850000 1.430914
vt 0.900000 1.430914
vt 0.950000 1.430914
vt 1.000000 1.430914
vt 0.000000 1.567714
vt 0.050000 1.567714
vt 0.100000 1.567714
vt 0.150000 1.567714
vt 0.200000 1.567714
vt 0.250000 1.567714
vt 0.300000 1.567714
vt 0.350000 1.567714
vt 0.400000 1.567714
vt 0.450000 1.567714
vt 0.500000 1.567714
vt 0.550000 1.567714
vt 0.600000 1.567714
vt 0.650000 1.567714
vt 0.700000 1.567714
vt 0.750000 1.567714
vt 0.800000 1.567714
vt 0.850000 1.567714
vt 0.900000 1.567714
vt 0.950000 1.567714
vt 1.000000 1.567714
usemtl mat
f 35/35 34/34 2/2
f 36/36 35/35 3/3
f 37/37 36/36 4/4
f 38/38 37/37 5/5
f 39/39 38/38 6/6
f 40/40 39/39 7/7
f 41/41 40/40 8/8
f 42/42 41/41 9/9
f 43/43 42/42 10/10
f 44/44 43/43 11/11
f 45/45 44/44 12/12
f 46/46 45/45 13/13
f 47/47 46/46 14/14
f 48/48 47/47 15/15
f 49/49 48/48 16/16
f 50/50 49/49 17/17
f 51/51 50/50 18/18
f 52/52 51/51 19/19
f 53/53 52/52 20/20
f 54/54 53/53 21/21
f 55/55 54/54 22/22
f 56/56 55/55 23/23
f 57/57 56/56 24/24
f 58/58 57/57 25/25
f 59/59 58/58 26/26
f 60/60 59/59 27/27
f 61/61 60/60 28/28
f 62/62 61/61 29/29
f 63/63 62/62 30/30
f 64/64 63/63 31/31
f 65/65 64/64 32/32
f 66/66 65/65 33/33
f 68/68 100/100 67/67
f 101/101 100/100 68/68
f 69/69 101/101 68/68
f 102/102 101/101 69/69
f 70/70 102/102 69/69
f 103/103 102/102 70/70
f 71/71 103/103 70/70
f 104/104 103/103 71/71
f 72/72 104/104 71/71
f 105/105 104/104 72/72
f 73/73 105/105 72/72
f 106/106 105/105 73/73
f 74/74 106/106 73/73
f 107/107 106/106 74/74
f 75/75 107/107 74/74
f 108/108 107/107 75/75
f 76/76 108/108 75/75
f 109/109 108/108 76/76
f 77/77 109/109 76/76
f 110/110 109/109 77/77
f 78/78 110/110 77/77
f 111/111 110/110 78/78
f 79/79 111/111 78/78
f 112/112 111/111 79/79
f 80/80 112/112 79/79
f 113/113 112/112 80/80
f 81/81 113/113 80/80
f 114/114 113/113 81/81
f 82/82 114/114 81/81
f 115/115 114/114 82/82
f 83/83 115/115 82/82
f 116/116 115/115 83/83
f 84/84 116/116 83/83
f 117/117 116/116 84/84
f 85/85 117/117 84/84
f 118/118 117/117 85/85
f 86/86 118/118 85/85
f 119/119 118/118 86/86
f 87/87 119/119 86/86
f 120/120 119/119 87/87
f 88/88 120/120 87/87
f 121/121 120/120 88/88
f 89/89 121/121 88/88
f 122/122 121/121 89/89
f 90/90 122/122 89/89
f 123/123 122/122 90/90
f 91/91 123/123 90/90
f 124/124 123/123 91/91
f 92/92 124/124 91/91
f 125/125 124/124 92/92
f 93/93 125/125 92/92
f 126/126 125/125 93/93
f 94/94 126/126 93/93
f 127/127 126/126 94/94
f 95/95 127/127 94/94
f 128/128 127/127 95/95
f 96/96 128/128 95/95
f 129/129 128/128 96/96
f 97/97 129/129 96/96
f 130/130 129/129 97/97
f 98/98 130/130 97/97
f 131/131 130/130 98/98
f 99/99 131/131 98/98
f 132/132 131/131 99/99
f 134/134 166/166 133/133
f 167/167 166/166 134/134
f 135/135 167/167 134/134
f 168/168 167/167 135/135
f 136/136 168/168 135/135
f 169/169 168/168 136/136
f 137/137 169/169 136/136
f 170/170 169/169 137/137
f 138/138 170/170 137/137
f 171/171 170/170 138/138
f 139/139 171/171 138/138
f 172/172 171/171 139/139
f 140/140 172/172 139/139
f 173/173 172/172 140/140
f 141/141 173/173 140/140
f 174/174 173/173 141/141
f 142/142 174/174 141/141
f 175/175 174/174 142/142
f 143/143 175/175 142/142
f 176/176 175/175 143/143
f 144/144 176/176 143/143
f 177/177 176/176 144/144
f 145/145 177/177 144/144
f 178/178 177/177 145/145
f 146/146 178/178 145/145
f 179/179 178/178 146/146
f 147/147 179/179 146/146
f 180/180 179/179 147/147
f 148/148 180/180 147/147
f 181/181 180/180 148/148
f 149/149 181/181 148/148
f 182/182 181/181 149/149
f 150/150 182/182 149/149
f 183/183 182/182 150/150
f 151/151 183/183 150/150
f 184/184 183/183 151/151
f 152/152 184/184 151/151
f 185/185 184/184 152/152
f 153/153 185/185 152/152
f 186/186 185/185 153/153
f 154/154 186/186 153/153
f 187/187 186/186 154/154
f 155/155 187/187 154/154
f 188/188 187/187 155/155
f 156/156 188/188 155/155
f 189/189 188/188 156/156
f 157/157 189/189 156/156
f 190/190 189/189 157/157
f 158/158 190/190 157/157
f 191/191 190/190 158/158
f 159/159 191/191 158/158
f 192/192 191/191 159/159
f 160/160 192/192 159/159
f 193/193 192/192 160/160
f 161/161 193/193 160/160
f 194/194 193/193 161/161
f 162/162 194/194 161/161
f 195/195 194/194 162/162
f 163/163 195/195 162/162
f 196/196 195/195 163/163
f 164/164 196/196 163/163
f 197/197 196/196 164/164
f 165/165 197/197 164/164
f 198/198 197/197 165/165
f 200/200 232/232 199/199
f 233/233 232/232 200/200
f 201/201 233/233 200/200
f 234/234 233/233 201/201
f 202/202 234/234 201/201
f 235/235 234/234 202/202
f 203/203 235/235 202/202
f 236/236 235/235 203/203
f 204/204 236/236 203/203
f 237/237 236/236 204/204
f 205/205 237/237 204/204
f 238/238 237/237 205/205
f 206/206 238/238 205/205
f 239/239 238/238 206/206
f 207/207 239/239 206/206
f 240/240 239/239 207/207
f 208/208 240/240 207/207
f 241/241 240/240 208/208
f 209/209 241/241 208/208
f 242/242 241/241 209/209
f 210/210 242/242 209/209
f 243/243 242/242 210/210
f 211/211 243/243 210/210
f 244/244 243/243 211/211
f 212/212 244/244 211/211
f 245/245 244/244 212/212
f 213/213 245/245 212/212
f 246/246 245/245 213/213
f 214/214 246/246 213/213
f 247/247 246/246 214/214
f 215/215 247/247 214/214
f 248/248 247/247 215/215
f 216/216 248/248 215/215
f 249/249 248/248 216/216
f 217/217 249/249 216/216
f 250/250 249/249 217/217
f 218/218 250/250 217/217
f 251/251 250/250 218/218
f 219/219 251/251 218/218
f 252/252 251/251 219/219
f 220/220 252/252 219/219
f 253/253 252/252 220/220
f 221/221 253/253 220/220
f 254/254 253/253 221/221
f 222/222 254/254 221/221
f 255/255 254/254 222/222
f 223/223 255/255 222/222
f 256/256 255/255 223/223
f 224/224 256/256 223/223
f 257/257 256/256 224/224
f 225/225 257/257 224/224
f 258/258 257/257 225/225
f 226/226 258/258 225/225
f 259/259 258/258 226/226
f 227/227 259/259 226/226
f 260/260 259/259 227/227
f 228/228 260/260 227/227
f 261/261 260/260 228/228
f 229/229 261/261 228/228
f 262/262 261/261 229/229
f 230/230 262/262 229/229
f 263/263 262/262 230/230
f 231/231 263/263 230/230
f 264/264 263/263 231/231
f 266/266 298/298 265/265
f 267/267 299/299 266/266
f 268/268 300/300 267/267
f 269/269 301/301 268/268
f 270/270 302/302 269/269
f 271/271 303/303 270/270
f 272/272 304/304 271/271
f 273/273 305/305 272/272
f 274/274 306/306 273/273
f 275/275 307/307 274/274
f 276/276 308/308 275/275
f 277/277 309/309 276/276
f 278/278 310/310 277/277
f 279/279 311/311 278/278
f 280/280 312/312 279/279
f 281/281 313/313 280/280
f 282/282 314/314 281/281
f 283/283 315/315 282/282
f 284/284 316/316 283/283
f 285/285 317/317 284/284
f 286/286 318/318 285/285
f 287/287 319/319 286/286
f 288/288 320/320 287/287
f 289/289 321/321 288/288
f 290/290 322/322 289/289
f 291/291 323/323 290/290
f 292/292 324/324 291/291
f 293/293 325/325 292/292
f 294/294 326/326 293/293
f 295/295 327/327 294/294
f 296/296 328/328 295/295
f 297/297 329/329 296/296
f 332/332 352/352 331/331
f 353/353 352/352 332/332
f 333/333 353/353 332/332
f 354/354 353/353 333/333
f 334/334 354/354 333/333
f 355/355 354/354 334/334
f 335/335 355/355 334/334
f 356/356 355/355 335/335
f 336/336 356/356 335/335
f 357/357 356/356 336/336
f 337/337 357/357 336/336
f 358/358 357/357 337/337
f 338/338 358/358 337/337
f 359/359 358/358 338/338
f 339/339 359/359 338/338
f 360/360 359/359 339/339
f 340/340 360/360 339/339
f 361/361 360/360 340/340
f 341/341 361/361 340/340
f 362/362 361/361 341/341
f 342/342 362/362 341/341
f 363/363 362/362 342/342
f 343/343 363/363 342/342
f 364/364 363/363 343/343
f 344/344 364/364 343/343
f 365/365 364/364 344/344
f 345/345 365/365 344/344
f 366/366 365/365 345/345
f 346/346 366/366 345/345
f 367/367 366/366 346/346
f 347/347 367/367 346/346
f 368/368 367/367 347/347
f 348/348 368/368 347/347
f 369/369 368/368 348/348
f 349/349 369/369 348/348
f 370/370 369/369 349/349
f 350/350 370/370 349/349
f 371/371 370/370 350/350
f 351/351 371/371 350/350
f 372/372 371/371 351/351
f 353/353 373/373 352/352
f 374/374 373/373 353/353
f 354/354 374/374 353/353
f 375/375 374/374 354/354
f 355/355 375/375 354/354
f 376/376 375/375 355/355
f 356/356 376/376 355/355
f 377/377 376/376 356/356
f 357/357 377/377 356/356
f 378/378 377/377 357/357
f 358/358 378/378 357/357
f 379/379 378/378 358/358
f 359/359 379/379 358/358
f 380/380 379/379 359/359
f 360/360 380/380 359/359
f 381/381 380/380 360/360
f 361/361 381/381 360/360
f 382/382 381/381 361/361
f 362/362 382/382 361/361
f 383/383 382/382 362/362
f 363/363 383/383 362/362
f 384/384 383/383 363/363
f 364/364 384/384 363/363
f 385/385 384/384 364/364
f 365/365 385/385 364/364
f 386/386 385/385 365/365
f 366/366 386/386 365/365
f 387/387 386/386 366/366
f 367/367 387/387 366/366
f 388/388 387/387 367/367
f 368/368 388/388 367/367
f 389/389 388/388 368/368
f 369/369 389/389 368/368
f 390/390 389/389 369/369
f 370/370 390/390 369/369
f 391/391 390/390 370/370
f 371/371 391/391 370/370
f 392/392 391/391 371/371
f 372/372 392/392 371/371
f 393/393 392/392 372/372
f 374/374 394/394 373/373
f 395/395 394/394 374/374
f 375/375 395/395 374/374
f 396/396 395/395 375/375
f 376/376 396/396 375/375
f 397/397 396/396 376/376
f 377/377 397/397 376/376
f 398/398 397/397 377/377
f 378/378 398/398 377/377
f 399/399 398/398 378/378
f 379/379 399/399 378/378
f 400/400 399/399 379/379
f 380/380 400/400 379/379
f 401/401 400/400 380/380
f 381/381 401/401 380/380
f 402/402 401/401 381/381
f 382/382 402/402 381/381
f 403/403 402/402 382/382
f 383/383 403/403 382/382
f 404/404 403/403 383/383
f 384/384 404/404 383/383
f 405/405 404/404 384/384
f 385/385 405/405 384/384
f 406/406 405/405 385/385
f 386/386 406/406 385/385
f 407/407 406/406 386/386
f 387/387 407/407 386/386
f 408/408 407/407 387/387
f 388/388 408/408 387/387
f 409/409 408/408 388/388
f 389/389 409/409 388/388
f 410/410 409/409 389/389
f 390/390 410/410 389/389
f 411/411 410/410 390/390
f 391/391 411/411 390/390
f 412/412 411/411 391/391
f 392/392 412/412 391/391
f 413/413 412/412 392/392
f 393/393 413/413 392/392
f 414/414 413/413 393/393
f 395/395 415/415 394/394
f 416/416 415/415 395/395
f 396/396 416/416 395/395
f 417/417 416/416 396/396
f 397/397 417/417 396/396
f 418/418 417/417 397/397
f 398/398 418/418 397/397
f 419/419 418/418 398/398
f 399/399 419/419 398/398
f 420/420 419/419 399/399
f 400/400 420/420 399/399
f 421/421 420/420 400/400
f 401/401 421/421 400/400
f 422/422 421/421 401/401
f 402/402 422/422 401/401
f 423/423 422/422 402/402
f 403/403 423/423 402/402
f 424/424 423/423 403/403
f 404/404 424/424 403/403
f 425/425 424/424 404/404
f 405/405 425/425 404/404
f 426/426 425/425 405/405
f 406/406 426/426 405/405
f 427/427 426/426 406/406
f 407/407 427/427 406/406
f 428/428 427/427 407/407
f 408/408 428/428 407/407
f 429/429 428/428 408/408
f 409/409 429/429 408/408
f 430/430 429/429 409/409
f 410/410 430/430 409/409
f 431/431 430/430 410/410
f 411/411 431/431 410/410
f 432/432 431/431 411/411
f 412/412 432/432 411/411
f 433/433 432/432 412/412
f 413/413 433/433 412/412
f 434/434 433/433 413/413
f 414/414 434/434 413/413
f 435/435 434/434 414/414
f 416/416 436/436 415/415
f 437/437 436/436 416/416
f 417/417 437/437 416/416
f 438/438 437/437 417/417
f 418/418 438/438 417/417
f 439/439 438/438 418/418
f 419/419 439/439 418/418
f 440/440 439/439 419/419
f 420/420 440/440 419/419
f 441/441 440/440 420/420
f 421/421 441/441 420/420
f 442/442 441/441 421/421
f 422/422 442/442 421/421
f 443/443 442/442 422/422
f 423/423 443/443 422/422
f 444/444 443/443 423/423
f 424/424 444/444 423/423
f 445/445 444/444 424/424
f 425/425 445/445 424/424
f 446/446 445/445 425/425
f 426/426 446/446 425/425
f 447/447 446/446 426/426
f 427/427 447/447 426/426
f 448/448 447/447 427/427
f 428/428 448/448 427/427
f 449/449 448/448 428/428
f 429/429 449/449 428/428
f 450/450 449/449 429/429
f 430/430 450/450 429/429
f 451/451 450/450 430/430
f 431/431 451/451 430/430
f 452/452 451/451 431/431
f 432/432 452/452 431/431
f 453/453 452/452 432/432
f 433/433 453/453 432/432
f 454/454 453/453 433/433
f 434/434 454/454 433/433
f 455/455 454/454 434/434
f 435/435 455/455 434/434
f 456/456 455/455 435/435
f 437/437 457/457 436/436
f 458/458 457/457 437/437
f 438/438 458/458 437/437
f 459/459 458/458 438/438
f 439/439 459/459 438/438
f 460/460 459/459 439/439
f 440/440 460/460 439/439
f 461/461 460/460 440/440
f 441/441 461/461 440/440
f 462/462 461/461 441/441
f 442/442 462/462 441/441
f 463/463 462/462 442/442
f 443/443 463/463 442/442
f 464/464 463/463 443/443
f 444/444 464/464 443/443
f 465/465 464/464 444/444
f 445/445 465/465 444/444
f 466/466 465/465 445/445
f 446/446 466/466 445/445
f 467/467 466/466 446/446
f 447/447 467/467 446/446
f 468/468 467/467 447/447
f 448/448 468/468 447/447
f 469/469 468/468 448/448
f 449/449 469/469 448/448
f 470/470 469/469 449/449
f 450/450 470/470 449/449
f 471/471 470/470 450/450
f 451/451 471/471 450/450
f 472/472 471/471 451/451
f 452/452 472/472 451/451
f 473/473 472/472 452/452
f 453/453 473/473 452/452
f 474/474 473/473 453/453
f 454/454 474/474 453/453
f 475/475 474/474 454/454
f 455/455 475/475 454/454
f 476/476 475/475 455/455
f 456/456 476/476 455/455
f 477/477 476/476 456/456
f 458/458 478/478 457/457
f 479/479 478/478 458/458
f 459/459 479/479 458/458
f 480/480 479/479 459/459
f 460/460 480/480 459/459
f 481/481 480/480 460/460
f 461/461 481/481 460/460
f 482/482 481/481 461/461
f 462/462 482/482 461/461
f 483/483 482/482 462/462
f 463/463 483/483 462/462
f 484/484 483/483 463/463
f 464/464 484/484 463/463
f 485/485 484/484 464/464
f 465/465 485/485 464/464
f 486/486 485/485 465/465
f 466/466 486/486 465/465
f 487/487 486/486 466/466
f 467/467 487/487 466/466
f 488/488 487/487 467/467
f 468/468 488/488 467/467
f 489/489 488/488 468/468
f 469/469 489/489 468/468
f 490/490 489/489 469/469
f 470/470 490/490 469/469
f 491/491 490/490 470/470
f 471/471 491/491 470/470
f 492/492 491/491 471/471
f 472/472 492/492 471/471
f 493/493 492/492 472/472
f 473/473 493/493 472/472
f 494/494 493/493 473/473
f 474/474 494/494 473/473
f 495/495 494/494 474/474
f 475/475 495/495 474/474
f 496/496 495/495 475/475
f 476/476 496/496 475/475
f 497/497 496/496 476/476
f 477/477 497/497 476/476
f 498/498 497/497 477/477
f 479/479 499/499 478/478
f 500/500 499/499 479/479
f 480/480 500/500 479/479
f 501/501 500/500 480/480
f 481/481 501/501 480/480
f 502/502 501/501 481/481
f 482/482 502/502 481/481
f 503/503 502/502 482/482
f 483/483 503/503 482/482
f 504/504 503/503 483/483
f 484/484 504/504 483/483
f 505/505 504/504 484/484
f 485/485 505/505 484/484
f 506/506 505/505 485/485
f 486/486 506/506 485/485
f 507/507 506/506 486/486
f 487/487 507/507 486/486
f 508/508 507/507 487/487
f 488/488 508/508 487/487
f 509/509 508/508 488/488
f 489/489 509/509 488/488
f 510/510 509/509 489/489
f 490/490 510/510 489/489
f 511/511 510/510 490/490
f 491/491 511/511 490/490
f 512/512 511/511 491/491
f 492/492 512/512 491/491
f 513/513 512/512 492/492
f 493/493 513/513 492/492
f 514/514 513/513 493/493
f 494/494 514/514 493/493
f 515/515 514/514 494/494
f 495/495 515/515 494/494
f 516/516 515/515 495/495
f 496/496 516/516 495/495
f 517/517 516/516 496/496
f 497/497 517/517 496/496
f 518/518 517/517 497/497
f 498/498 518/518 497/497
f 519/519 518/518 498/498
f 500/500 520/520 499/499
f 521/521 520/520 500/500
f 501/501 521/521 500/500
f 522/522 521/521 501/501
f 502/502 522/522 501/501
f 523/523 522/522 502/502
f 503/503 523/523 502/502
f 524/524 523/523 503/503
f 504/504 524/524 503/503
f 525/525 524/524 504/504
f 505/505 525/525 504/504
f 526/526 525/525 505/505
f 506/506 526/526 505/505
f 527/527 526/526 506/506
f 507/507 527/527 506/506
f 528/528 527/527 507/507
f 508/508 528/528 507/507
f 529/529 528/528 508/508
f 509/509 529/529 508/508
f 530/530 529/529 509/509
f 510/510 530/530 509/509
f 531/531 530/530 510/510
f 511/511 531/531 510/510
f 532/532 531/531 511/511
f 512/512 532/532 511/511
f 533/533 532/532 512/512
f 513/513 533/533 512/512
f 534/534 533/533 513/513
f 514/514 534/534 513/513
f 535/535 534/534 514/514
f 515/515 535/535 514/514
f 536/536 535/535 515/515
f 516/516 536/536 515/515
f 537/537 536/536 516/516
f 517/517 537/537 516/516
f 538/538 537/537 517/517
f 518/518 538/538 517/517
f 539/539 538/538 518/518
f 519/519 539/539 518/518
f 540/540 539/539 519/519
f 521/521 541/541 520/520
f 542/542 541/541 521/521
f 522/522 542/542 521/521
f 543/543 542/542 522/522
f 523/523 543/543 522/522
f 544/544 543/543 523/523
f 524/524 544/544 523/523
f 545/545 544/544 524/524
f 525/525 545/545 524/524
f 546/546 545/545 525/525
f 526/526 546/546 525/525
f 547/547 546/546 526/526
f 527/527 547/547 526/526
f 548/548 547/547 527/527
f 528/528 548/548 527/527
f 549/549 548/548 528/528
f 529/529 549/549 528/528
f 550/550 549/549 529/529
f 530/530 550/550 529/529
f 551/551 550/550 530/530
f 531/531 551/551 530/530
f 552/552 551/551 531/531
f 532/532 552/552 531/531
f 553/553 552/552 532/532
f 533/533 553/553 532/532
f 554/554 553/553 533/533
f 534/534 554/554 533/533
f 555/555 554/554 534/534
f 535/535 555/555 534/534
f 556/556 555/555 535/535
f 536/536 556/556 535/535
f 557/557 556/556 536/536
f 537/537 557/557 536/536
f 558/558 557/557 537/537
f 538/538 558/558 537/537
f 559/559 558/558 538/538
f 539/539 559/559 538/538
f 560/560 559/559 539/539
f 540/540 560/560 539/539
f 561/561 560/560 540/540
f 542/542 562/562 541/541
f 563/563 562/562 542/542
f 543/543 563/563 542/542
f 564/564 563/563 543/543
f 544/544 564/564 543/543
f 565/565 564/564 544/544
f 545/545 565/565 544/544
f 566/566 565/565 545/545
f 546/546 566/566 545/545
f 567/567 566/566 546/546
f 547/547 567/567 546/546
f 568/568 567/567 547/547
f 548/548 568/568 547/547
f 569/569 568/568 548/548
f 549/549 569/569 548/548
f 570/570 569/569 549/549
f 550/550 570/570 549/549
f 571/571 570/570 550/550
f 551/551 571/571 550/550
f 572/572 571/571 551/551
f 552/552 572/572 551/551
f 573/573 572/572 552/552
f 553/553 573/573 552/552
f 574/574 573/573 553/553
f 554/554 574/574 553/553
f 575/575 574/574 554/554
f 555/555 575/575 554/554
f 576/576 575/575 555/555
f 556/556 576/576 555/555
f 577/577 576/576 556/556
f 557/557 577/577 556/556
f 578/578 577/577 557/557
f 558/558 578/578 557/557
f 579/579 578/578 558/558
f 559/559 579/579 558/558
f 580/580 579/579 559/559
f 560/560 580/580 559/559
f 581/581 580/580 560/560
f 561/561 581/581 560/560
f 582/582 581/581 561/561
f 563/563 583/583 562/562
f 584/584 583/583 563/563
f 564/564 584/584 563/563
f 585/585 584/584 564/564
f 565/565 585/585 564/564
f 586/586 585/585 565/565
f 566/566 586/586 565/565
f 587/587 586/586 566/566
f 567/567 587/587 566/566
f 588/588 587/587 567/567
f 568/568 588/588 567/567
f 589/589 588/588 568/568
f 569/569 589/589 568/568
f 590/590 589/589 569/569
f 570/570 590/590 569/569
f 591/591 590/590 570/570
f 571/571 591/591 570/570
f 592/592 591/591 571/571
f 572/572 592/592 571/571
f 593/593 592/592 572/572
f 573/573 593/593 572/572
f 594/594 593/593 573/573
f 574/574 594/594 573/573
f 595/595 594/594 574/574
f 575/575 595/595 574/574
f 596/596 595/595 575/575
f 576/576 596/596 575/575
f 597/597 596/596 576/576
f 577/577 597/597 576/576
f 598/598 597/597 577/577
f 578/578 598/598 577/577
f 599/599 598/598 578/578
f 579/579 599/599 578/578
f 600/600 599/599 579/579
f 580/580 600/600 579/579
f 601/601 600/600 580/580
f 581/581 601/601 580/580
f 602/602 601/601 581/581
f 582/582 602/602 581/581
f 603/603 602/602 582/582
f 584/584 604/604 583/583
f 605/605 604/604 584/584
f 585/585 605/605 584/584
f 606/606 605/605 585/585
f 586/586 606/606 585/585
f 607/607 606/606 586/586
f 587/587 607/607 586/586
f 608/608 607/607 587/587
f 588/588 608/608 587/587
f 609/609 608/608 588/588
f 589/589 609/609 588/588
f 610/610 609/609 589/589
f 590/590 610/610 589/589
f 611/611 610/610 590/590
f 591/591 611/611 590/590
f 612/612 611/611 591/591
f 592/592 612/612 591/591
f 613/613 612/612 592/592
f 593/593 613/613 592/592
f 614/614 613/613 593/593
f 594/594 614/614 593/593
f 615/615 614/614 594/594
f 595/595 615/615 594/594
f 616/616 615/615 595/595
f 596/596 616/616 595/595
f 617/617 616/616 596/596
f 597/597 617/617 596/596
f 618/618 617/617 597/597
f 598/598 618/618 597/597
f 619/619 618/618 598/598
f 599/599 619/619 598/598
f 620/620 619/619 599/599
f 600/600 620/620 599/599
f 621/621 620/620 600/600
f 601/601 621/621 600/600
f 622/622 621/621 601/601
f 602/602 622/622 601/601
f 623/623 622/622 602/602
f 603/603 623/623 602/602
f 624/624 623/623 603/603
f 605/605 625/625 604/604
f 626/626 625/625 605/605
f 606/606 626/626 605/605
f 627/627 626/626 606/606
f 607/607 627/627 606/606
f 628/628 627/627 607/607
f 608/608 628/628 607/607
f 629/629 628/628 608/608
f 609/609 629/629 608/608
f 630/630 629/629 609/609
f 610/610 630/630 609/609
f 631/631 630/630 610/610
f 611/611 631/631 610/610
f 632/632 631/631 611/611
f 612/612 632/632 611/611
f 633/633 632/632 612/612
f 613/613 633/633 612/612
f 634/634 633/633 613/613
f 614/614 634/634 613/613
f 635/635 634/634 614/614
f 615/615 635/635 614/614
f 636/636 635/635 615/615
f 616/616 636/636 615/615
f 637/637 636/636 616/616
f 617/617 637/637 616/616
f 638/638 637/637 617/617
f 618/618 638/638 617/617
f 639/639 638/638 618/618
f 619/619 639/639 618/618
f 640/640 639/639 619/619
f 620/620 640/640 619/619
f 641/641 640/640 620/620
f 621/621 641/641 620/620
f 642/642 641/641 621/621
f 622/622 642/642 621/621
f 643/643 642/642 622/622
f 623/623 643/643 622/622
f 644/644 643/643 623/623
f 624/624 644/644 623/623
f 645/645 644/644 624/624
f 626/626 646/646 625/625
f 647/647 646/646 626/626
f 627/627 647/647 626/626
f 648/648 647/647 627/627
f 628/628 648/648 627/627
f 649/649 648/648 628/628
f 629/629 649/649 628/628
f 650/650 649/649 629/629
f 630/630 650/650 629/629
f 651/651 650/650 630/630
f 631/631 651/651 630/630
f 652/652 651/651 631/631
f 632/632 652/652 631/631
f 653/653 652/652 632/632
f 633/633 653/653 632/632
f 654/654 653/653 633/633
f 634/634 654/654 633/633
f 655/655 654/654 634/634
f 635/635 655/655 634/634
f 656/656 655/655 635/635
f 636/636 656/656 635/635
f 657/657 656/656 636/636
f 637/637 657/657 636/636
f 658/658 657/657 637/637
f 638/638 658/658 637/637
f 659/659 658/658 638/638
f 639/639 659/659 638/638
f 660/660 659/659 639/639
f 640/640 660/660 639/639
f 661/661 660/660 640/640
f 641/641 661/661 640/640
f 662/662 661/661 641/641
f 642/642 662/662 641/641
f 663/663 662/662 642/642
f 643/643 663/663 642/642
f 664/664 663/663 643/643
f 644/644 664/664 643/643
f 665/665 664/664 644/644
f 645/645 665/665 644/644
f 666/666 665/665 645/645
f 647/647 667/667 646/646
f 668/668 667/667 647/647
f 648/648 668/668 647/647
f 669/669 668/668 648/648
f 649/649 669/669 648/648
f 670/670 669/669 649/649
f 650/650 670/670 649/649
f 671/671 670/670 650/650
f 651/651 671/671 650/650
f 672/672 671/671 651/651
f 652/652 672/672 651/651
f 673/673 672/672 652/652
f 653/653 673/673 652/652
f 674/674 673/673 653/653
f 654/654 674/674 653/653
f 675/675 674/674 654/654
f 655/655 675/675 654/654
f 676/676 675/675 655/655
f 656/656 676/676 655/655
f 677/677 676/676 656/656
f 657/657 677/677 656/656
f 678/678 677/677 657/657
f 658/658 678/678 657/657
f 679/679 678/678 658/658
f 659/659 679/679 658/658
f 680/680 679/679 659/659
f 660/660 680/680 659/659
f 681/681 680/680 660/660
f 661/661 681/681 660/660
f 682/682 681/681 661/661
f 662/662 682/682 661/661
f 683/683 682/682 662/662
f 663/663 683/683 662/662
f 684/684 683/683 663/663
f 664/664 684/684 663/663
f 685/685 684/684 664/664
f 665/665 685/685 664/664
f 686/686 685/685 665/665
f 666/666 686/686 665/665
f 687/687 686/686 666/666
f 668/668 688/688 667/667
f 689/689 688/688 668/668
f 669/669 689/689 668/668
f 690/690 689/689 669/669
f 670/670 690/690 669/669
f 691/691 690/690 670/670
f 671/671 691/691 670/670
f 692/692 691/691 671/671
f 672/672 692/692 671/671
f 693/693 692/692 672/672
f 673/673 693/693 672/672
f 694/694 693/693 673/673
f 674/674 694/694 673/673
f 695/695 694/694 674/674
f 675/675 695/695 674/674
f 696/696 695/695 675/675
f 676/676 696/696 675/675
f 697/697 696/696 676/676
f 677/677 697/697 676/676
f 698/698 697/697 677/677
f 678/678 698/698 677/677
f 699/699 698/698 678/678
f 679/679 699/699 678/678
f 700/700 699/699 679/679
f 680/680 700/700 679/679
f 701/701 700/700 680/680
f 681/681 701/701 680/680
f 702/702 701/701 681/681
f 682/682 702/702 681/681
f 703/703 702/702 682/682
f 683/683 703/703 682/682
f 704/704 703/703 683/683
f 684/684 704/704 683/683
f 705/705 704/704 684/684
f 685/685 705/705 684/684
f 706/706 705/705 685/685
f 686/686 706/706 685/685
f 707/707 706/706 686/686
f 687/687 707/707 686/686
f 708/708 707/707 687/687
f 689/689 709/709 688/688
f 710/710 709/709 689/689
f 690/690 710/710 689/689
f 711/711 710/710 690/690
f 691/691 711/711 690/690
f 712/712 711/711 691/691
f 692/692 712/712 691/691
f 713/713 712/712 692/692
f 693/693 713/713 692/692
f 714/714 713/713 693/693
f 694/694 714/714 693/693
f 715/715 714/714 694/694
f 695/695 715/715 694/694
f 716/716 715/715 695/695
f 696/696 716/716 695/695
f 717/717 716/716 696/696
f 697/697 717/717 696/696
f 718/718 717/717 697/697
f 698/698 718/718 697/697
f 719/719 718/718 698/698
f 699/699 719/719 698/698
f 720/720 719/719 699/699
f 700/700 720/720 699/699
f 721/721 720/720 700/700
f 701/701 721/721 700/700
f 722/722 721/721 701/701
f 702/702 722/722 701/701
f 723/723 722/722 702/702
f 703/703 723/723 702/702
f 724/724 723/723 703/703
f 704/704 724/724 703/703
f 725/725 724/724 704/704
f 705/705 725/725 704/704
f 726/726 725/725 705/705
f 706/706 726/726 705/705
f 727/727 726/726 706/706
f 707/707 727/727 706/706
f 728/728 727/727 707/707
f 708/708 728/728 707/707
f 729/729 728/728 708/708
f 710/710 730/730 709/709
f 731/731 730/730 710/710
f 711/711 731/731 710/710
f 732/732 731/731 711/711
f 712/712 732/732 711/711
f 733/733 732/732 712/712
f 713/713 733/733 712/712
f 734/734 733/733 713/713
f 714/714 734/734 713/713
f 735/735 734/734 714/714
f 715/715 735/735 714/714
f 736/736 735/735 715/715
f 716/716 736/736 715/715
f 737/737 736/736 716/716
f 717/717 737/737 716/716
f 738/738 737/737 717/717
f 718/718 738/738 717/717
f 739/739 738/738 718/718
f 719/719 739/739 718/718
f 740/740 739/739 719/719
f 720/720 740/740 719/719
f 741/741 740/740 720/720
f 721/721 741/741 720/720
f 742/742 741/741 721/721
f 722/722 742/742 721/721
f 743/743 742/742 722/722
f 723/723 743/743 722/722
f 744/744 743/743 723/723
f 724/724 744/744 723/723
f 745/745 744/744 724/724
f 725/725 745/745 724/724
f 746/746 745/745 725/725
f 726/726 746/746 725/725
f 747/747 746/746 726/726
f 727/727 747/747 726/726
f 748/748 747/747 727/727
f 728/728 748/748 727/727
f 749/749 748/748 728/728
f 729/729 749/749 728/728
f 750/750 749/749 729/729
