# generated by mjlab asset_pipeline; 188 faces
v -0.005610 0.013466 -0.025192
v -0.002853 0.013461 -0.026028
v -0.002367 0.014586 -0.024647
v -0.000707 0.014278 -0.025566
v -0.014026 0.000811 -0.025849
v -0.014615 -0.000672 -0.025040
v -0.013697 -0.004283 -0.025631
v -0.012795 -0.002575 -0.026363
v -0.012775 0.007540 -0.024447
v -0.013857 0.004560 -0.025035
v -0.014736 0.002858 -0.020902
v -0.009655 0.011184 -0.024706
v -0.008066 0.011446 -0.025877
v -0.012984 0.004438 -0.025963
v -0.011426 0.008951 -0.025252
v -0.006917 0.013198 -0.023693
v -0.012488 -0.006123 -0.026071
v -0.013440 -0.006168 -0.024960
v -0.012155 -0.008329 -0.025052
v -0.009308 -0.010593 -0.025867
v 0.003837 0.014192 -0.024785
v 0.003478 0.013163 -0.025989
v 0.010868 0.008302 -0.026152
v 0.012339 0.005183 -0.026349
v 0.013910 0.003262 -0.025273
v 0.013927 0.001945 -0.025682
v 0.014263 -0.001477 -0.024968
v 0.013452 -0.002668 -0.025960
v 0.010845 -0.007021 -0.026404
v 0.011034 -0.009318 -0.024678
v 0.012770 -0.006279 -0.025268
v 0.013909 -0.004011 -0.024018
v 0.005908 0.013389 -0.024941
v 0.006812 0.012885 -0.025119
v 0.009677 0.010850 -0.024905
v 0.012248 0.007990 -0.023412
v 0.012740 0.006423 -0.025488
v -0.006881 -0.011644 -0.026150
v -0.007915 -0.012479 -0.024745
v -0.005778 -0.013343 -0.025319
v -0.001434 -0.013927 -0.025885
v -0.003902 -0.014230 -0.024027
v -0.000818 -0.014504 -0.025170
v 0.002346 -0.013980 -0.025680
v 0.005116 -0.012574 -0.026271
v 0.004421 -0.013918 -0.024349
v 0.008363 -0.011284 -0.025804
v 0.007069 -0.012517 -0.025367
v -0.001109 0.011909 0.026421
v -0.011373 0.009287 0.010128
v 0.001902 0.014806 0.009909
v -0.004666 0.011067 0.026247
v -0.002897 0.011929 0.025806
v 0.001150 0.012116 0.026311
v -0.000168 0.012238 0.026106
v 0.003767 0.011836 0.025848
v 0.006383 0.010674 0.026089
v 0.008142 0.009233 0.026306
v 0.009628 0.008002 0.026068
v -0.010621 0.004576 0.026492
v -0.011748 -0.000958 0.026480
v -0.005503 -0.010557 0.026492
v 0.002526 -0.012168 0.026361
v -0.011480 -0.009354 0.010229
v -0.014112 -0.003543 0.011640
v -0.011045 0.004886 0.025874
v -0.010146 0.006431 0.026131
v -0.011967 0.000505 0.026262
v -0.011609 0.002601 0.026332
v -0.007528 0.009449 0.026060
v -0.007556 0.009228 0.026286
v -0.011340 -0.003786 0.026360
v -0.009986 -0.006934 0.026070
v -0.008773 -0.008320 0.026318
v -0.007728 -0.009361 0.026333
v -0.006105 -0.010737 0.026033
v -0.003858 -0.011584 0.026352
v -0.001181 -0.012374 0.026123
v 0.000248 -0.012332 0.026363
v 0.009273 0.011678 0.011345
v 0.014866 0.000726 0.011270
v 0.004627 -0.011189 0.026458
v 0.006635 -0.010581 0.026297
v 0.011942 0.002718 0.026382
v 0.001369 -0.014792 0.011388
v 0.008962 -0.012030 0.009783
v 0.012377 -0.002991 0.026033
v 0.005855 -0.011183 0.026080
v 0.009405 -0.008433 0.026164
v 0.009970 -0.007603 0.026278
v 0.011192 -0.006177 0.025853
v 0.011363 -0.005373 0.026252
v 0.010897 0.006246 0.026106
v 0.012058 0.003810 0.026041
v 0.012447 0.002263 0.026041
v 0.012543 -0.000497 0.026259
f 65 50 11
f 6 65 11
f 10 6 11
f 46 86 85
f 85 64 42
f 47 31 30
f 31 86 30
f 91 92 90
f 81 36 80
f 80 36 35
f 85 86 88
f 88 63 85
f 90 92 84
f 84 92 96
f 84 49 60
f 51 3 16
f 15 10 9
f 11 50 9
f 9 10 11
f 39 42 64
f 40 42 39
f 64 19 39
f 65 6 18
f 64 65 18
f 18 19 64
f 14 10 15
f 40 39 20
f 20 39 19
f 29 31 47
f 8 24 29
f 81 96 87
f 96 92 87
f 87 91 81
f 92 91 87
f 89 91 90
f 86 91 89
f 83 89 90
f 83 88 86
f 86 89 83
f 74 62 72
f 60 49 71
f 55 54 51
f 55 49 54
f 54 49 58
f 49 84 58
f 95 96 81
f 95 84 96
f 50 16 12
f 12 9 50
f 15 9 12
f 46 44 48
f 86 46 48
f 47 30 48
f 48 30 86
f 43 42 40
f 85 42 43
f 43 46 85
f 43 44 46
f 7 18 6
f 5 14 8
f 5 7 6
f 8 7 5
f 6 10 5
f 10 14 5
f 40 20 38
f 24 22 23
f 21 3 51
f 1 16 3
f 1 12 16
f 2 24 8
f 2 22 24
f 32 27 81
f 31 27 32
f 81 91 32
f 32 86 31
f 32 91 86
f 25 36 81
f 81 27 25
f 28 29 24
f 31 29 28
f 28 27 31
f 63 88 82
f 88 83 82
f 82 83 90
f 90 84 82
f 82 84 60
f 60 62 82
f 75 74 64
f 75 62 74
f 61 62 60
f 61 72 62
f 65 72 61
f 61 68 65
f 64 74 73
f 74 72 73
f 73 65 64
f 73 72 65
f 67 66 60
f 60 71 67
f 50 66 67
f 51 16 53
f 53 16 50
f 53 55 51
f 49 55 53
f 56 80 51
f 51 54 56
f 93 58 84
f 81 80 93
f 47 48 45
f 45 48 44
f 45 29 47
f 8 29 45
f 45 38 8
f 17 7 8
f 8 38 17
f 17 38 20
f 17 20 19
f 19 18 17
f 18 7 17
f 35 23 34
f 34 23 22
f 34 80 35
f 8 14 13
f 13 2 8
f 13 14 15
f 1 2 13
f 15 12 13
f 12 1 13
f 4 21 22
f 22 2 4
f 3 21 4
f 4 1 3
f 4 2 1
f 36 25 37
f 35 36 37
f 37 23 35
f 24 23 37
f 37 25 24
f 26 25 27
f 27 28 26
f 24 25 26
f 26 28 24
f 76 64 85
f 76 75 64
f 62 75 76
f 63 82 79
f 79 82 62
f 85 63 79
f 79 78 85
f 69 61 60
f 68 61 69
f 60 66 69
f 65 68 69
f 50 65 69
f 69 66 50
f 50 67 70
f 70 67 71
f 52 71 49
f 49 53 52
f 52 70 71
f 52 53 50
f 50 70 52
f 54 58 57
f 57 56 54
f 57 58 80
f 80 56 57
f 84 95 94
f 94 93 84
f 94 95 81
f 81 93 94
f 80 58 59
f 59 93 80
f 58 93 59
f 41 45 44
f 38 45 41
f 44 43 41
f 41 43 40
f 40 38 41
f 22 21 33
f 33 34 22
f 80 34 33
f 51 80 33
f 33 21 51
f 77 79 62
f 78 79 77
f 62 76 77
f 85 78 77
f 77 76 85
